<svg width="56" height="58" viewBox="0 0 56 58" fill="none" xmlns="http://www.w3.org/2000/svg">
<path d="M0 28C20.0619 31.2391 25.2762 32.9393 28 56C30.7303 32.9393 32.9393 30.7238 56 28C32.9393 25.2697 30.7237 23.0607 28 0C25.2697 23.0607 23.0607 25.2762 0 28Z" fill="white"/>
<path d="M33 14C38.732 14.9254 40.2218 15.4112 41 22C41.7801 15.4112 42.4112 14.7782 49 14C42.4112 13.2199 41.7782 12.5888 41 6C40.2199 12.5888 39.5888 13.2218 33 14Z" fill="#EBE55B"/>
<path d="M14 52C18.299 52.6941 19.4163 53.0584 20 58C20.5851 53.0584 21.0584 52.5837 26 52C21.0584 51.4149 20.5837 50.9416 20 46C19.4149 50.9416 18.9416 51.4163 14 52Z" fill="#EBE55B"/>
</svg>
