<svg width="360" height="326" viewBox="0 0 360 326" fill="none" xmlns="http://www.w3.org/2000/svg">
<g clip-path="url(#clip0_3172_22625)">
<path d="M14.3487 174.355C14.3487 174.355 16.3433 236.265 68.0237 277.538C119.704 318.812 191.322 321.761 249.296 325.69C307.27 329.62 351.806 296.782 358.486 247.168C365.166 197.554 320.897 182.988 296.858 126.503C272.819 70.0187 274.994 51.4542 224.139 16.7157C173.284 -18.0227 93.722 3.31047 52.0149 62.8044C10.3078 122.298 14.3487 174.355 14.3487 174.355Z" fill="#E3E3E3"/>
<path opacity="0.7" d="M14.3487 174.355C14.3487 174.355 16.3433 236.265 68.0237 277.538C119.704 318.812 191.322 321.761 249.296 325.69C307.27 329.62 351.806 296.782 358.486 247.168C365.166 197.554 320.897 182.988 296.858 126.503C272.819 70.0187 274.994 51.4542 224.139 16.7157C173.284 -18.0227 93.722 3.31047 52.0149 62.8044C10.3078 122.298 14.3487 174.355 14.3487 174.355Z" fill="white"/>
<path d="M38.5341 93.4929V71.3343C38.5341 55.6504 51.5681 42.89 67.5855 42.89C83.6029 42.89 96.6369 55.6504 96.6369 71.3343V93.4929H108.218V71.3343C108.218 49.3991 89.991 31.5484 67.5855 31.5484C45.1801 31.5484 26.9531 49.3991 26.9531 71.3343V93.4929H38.5341Z" stroke="#333333" stroke-width="1.17" stroke-linecap="round" stroke-linejoin="round"/>
<path d="M111.365 93.6477H22.6543V167.037H111.365V93.6477Z" stroke="#333333" stroke-width="1.17" stroke-linecap="round" stroke-linejoin="round"/>
<path d="M76.2349 124.13C76.1599 121.618 75.1094 119.233 73.3061 117.483C71.5028 115.732 69.0885 114.753 66.5755 114.753C64.0624 114.753 61.6482 115.732 59.8448 117.483C58.0415 119.233 56.991 121.618 56.916 124.13C56.9264 125.847 57.404 127.529 58.2977 128.995C59.1913 130.462 60.4672 131.657 61.9886 132.453L60.3637 149.118H72.7872L71.1623 132.453C72.6837 131.657 73.9596 130.462 74.8533 128.995C75.7469 127.529 76.2245 125.847 76.2349 124.13Z" stroke="#333333" stroke-width="1.17" stroke-linecap="round" stroke-linejoin="round"/>
<path d="M166.666 169.419L144.578 167.966V167.605L141.862 167.785L139.153 167.605V167.966L117.066 169.419L100.773 303.377H117.066L141.32 196.573H142.412L166.666 303.377H182.958L166.666 169.419Z" fill="#333333" stroke="#333333" stroke-width="1.17" stroke-linecap="round" stroke-linejoin="round"/>
<path d="M100.772 303.377L96.7909 309.534L84.4791 314.968C83.8305 315.326 83.2884 315.85 82.9078 316.486C82.5273 317.122 82.3219 317.847 82.3125 318.588V323.291H117.425C117.632 320.762 117.632 318.22 117.425 315.69C117.064 312.07 117.064 303.377 117.064 303.377H100.772Z" fill="#666666" stroke="#333333" stroke-width="1.17" stroke-linecap="round" stroke-linejoin="round"/>
<path d="M82.3125 319.31V323.291H117.425C117.425 323.291 117.589 321.571 117.589 319.31H82.3125Z" fill="#333333" stroke="#333333" stroke-width="1.17" stroke-linecap="round" stroke-linejoin="round"/>
<path d="M182.889 303.377L186.87 309.534L199.181 314.968C199.83 315.326 200.372 315.85 200.753 316.486C201.133 317.122 201.339 317.847 201.348 318.588V323.291H166.235C166.028 320.762 166.028 318.22 166.235 315.69C166.596 312.07 166.596 303.377 166.596 303.377H182.889Z" fill="#666666" stroke="#333333" stroke-width="1.17" stroke-linecap="round" stroke-linejoin="round"/>
<path d="M201.366 319.31V323.291H166.236C166.236 323.291 166.081 321.571 166.072 319.31H201.366Z" fill="#333333" stroke="#333333" stroke-width="1.17" stroke-linecap="round" stroke-linejoin="round"/>
<path d="M107.711 107.096C107.711 107.096 81.918 143.348 81.918 146.005C81.918 148.662 86.019 169.178 92.536 171.104C99.053 173.03 102.673 169.66 103.876 162.901C105.08 156.143 100.979 146.486 100.979 146.486L113.016 135.626L107.711 107.096Z" fill="#3291FF" stroke="#333333" stroke-width="1.17" stroke-linecap="round" stroke-linejoin="round"/>
<path d="M102.707 161.938C102.707 161.938 110.187 160.726 112.121 161.207C114.056 161.689 115.5 166.28 115.5 166.28C115.5 166.28 116.223 173.039 115.01 174.483C113.798 175.928 108.012 177.622 105.604 178.103C103.197 178.585 98.1159 173.039 96.1471 169.66C94.1782 166.28 97.6345 160.485 102.707 161.938Z" fill="#E3E3E3" stroke="#333333" stroke-width="1.17" stroke-linecap="round" stroke-linejoin="round"/>
<path d="M113.136 105.454L107.711 107.096L116.257 164.139H167.06L174.781 107.423L167.877 104.792L142.402 99.2024L113.136 105.454Z" fill="#3291FF" stroke="#333333" stroke-width="1.17" stroke-linecap="round" stroke-linejoin="round"/>
<path d="M169.855 124.517L168.703 132.737L159.821 134.878L150.785 131.258L151.439 123.863L169.855 124.517Z" fill="#333333" stroke="#333333" stroke-width="1.17" stroke-linecap="round" stroke-linejoin="round"/>
<path d="M158.832 131.181C158.832 130.871 158.924 130.569 159.096 130.311C159.268 130.054 159.512 129.853 159.798 129.735C160.084 129.616 160.399 129.585 160.702 129.646C161.006 129.706 161.284 129.855 161.503 130.074C161.722 130.293 161.871 130.572 161.931 130.875C161.992 131.179 161.961 131.493 161.842 131.779C161.724 132.065 161.523 132.31 161.266 132.482C161.009 132.654 160.706 132.745 160.397 132.745C159.983 132.743 159.586 132.577 159.293 132.285C159 131.992 158.834 131.595 158.832 131.181Z" fill="#666666" stroke="#333333" stroke-width="1.17" stroke-linecap="round" stroke-linejoin="round"/>
<path d="M136.978 109.727L141.741 115.316L135.662 154.113L142.067 164.303L149.633 153.623L143.219 115.48L148.645 110.217L142.893 102.822L136.978 109.727Z" fill="#333333" stroke="#333333" stroke-width="1.17" stroke-linecap="round" stroke-linejoin="round"/>
<path d="M132.37 100.028L110.506 105.453L111.168 108.075L132.533 102.16L132.37 100.028Z" fill="#333333" stroke="#333333" stroke-width="1.17" stroke-linecap="round" stroke-linejoin="round"/>
<path d="M150.286 99.3658L172.15 104.791L171.497 107.422L150.123 101.507L150.286 99.3658Z" fill="#333333" stroke="#333333" stroke-width="1.17" stroke-linecap="round" stroke-linejoin="round"/>
<path d="M172.133 104.792C172.133 104.792 180.404 106.657 185.468 109.555C190.532 112.453 191.744 118.971 188.847 126.211C185.95 133.451 177.025 132.488 172.924 130.51C168.823 128.532 167.611 121.344 168.333 118.205" fill="#3291FF"/>
<path d="M172.133 104.792C172.133 104.792 180.404 106.657 185.468 109.555C190.532 112.453 191.744 118.971 188.847 126.211C185.95 133.451 177.025 132.488 172.924 130.51C168.823 128.532 167.611 121.344 168.333 118.205" stroke="#333333" stroke-width="1.17" stroke-linecap="round" stroke-linejoin="round"/>
<path d="M133.358 97.2334L130.891 98.8757L131.553 115.48L142.231 107.913L153.416 115.643L154.397 99.2024L151.439 96.7346L133.358 97.2334Z" fill="#3291FF" stroke="#333333" stroke-width="1.17" stroke-linecap="round" stroke-linejoin="round"/>
<path d="M154.938 77.4823C154.938 77.4823 161.008 76.0033 162.151 69.9327C163.295 63.862 152.358 56.4758 144.775 55.1688C137.192 53.8618 126.076 61.7296 124.27 67.1467C122.465 72.5639 129.515 77.9724 137.063 79.1246C144.612 80.2768 154.938 77.4823 154.938 77.4823Z" fill="#333333" stroke="#333333" stroke-width="1.17" stroke-linecap="round" stroke-linejoin="round"/>
<path d="M132.309 78.4708C132.309 78.4708 129.024 73.381 128.208 77.8088C127.391 82.2366 130.83 84.2055 132.309 84.0421C133.788 83.8788 132.309 78.4708 132.309 78.4708Z" fill="#E3E3E3" stroke="#333333" stroke-width="1.17" stroke-linecap="round" stroke-linejoin="round"/>
<path d="M153.639 78.4708C153.639 78.4708 156.924 73.381 157.74 77.8088C158.557 82.2366 155.161 84.2055 153.639 84.0421C152.117 83.8788 153.639 78.4708 153.639 78.4708Z" fill="#E3E3E3" stroke="#333333" stroke-width="1.17" stroke-linecap="round" stroke-linejoin="round"/>
<path d="M133.031 88.5143V99.3658L142.231 107.913L152.591 99.0391V88.8411L133.031 88.5143Z" fill="#E3E3E3" stroke="#333333" stroke-width="1.17" stroke-linecap="round" stroke-linejoin="round"/>
<path d="M131.655 75.1864C131.655 75.1864 131.156 85.3586 131.982 88.6433C132.807 91.928 138.215 98.8155 142.48 100.294C146.744 101.773 152.651 92.9082 153.966 89.9761C155.281 87.044 154.783 74.5502 154.783 74.5502C154.783 74.5502 152.986 70.2508 149.375 68.9782C145.764 67.7056 134.604 65.384 131.655 75.1864Z" fill="#E3E3E3" stroke="#333333" stroke-width="1.17" stroke-linecap="round" stroke-linejoin="round"/>
<path d="M138.473 80.5862C138.473 81.36 138.12 81.9876 137.682 81.9876C137.243 81.9876 136.891 81.36 136.891 80.5862C136.891 79.8124 137.243 79.1848 137.682 79.1848C138.12 79.1848 138.473 79.8124 138.473 80.5862Z" fill="#333333"/>
<path d="M148.541 80.5862C148.541 81.36 148.188 81.9876 147.75 81.9876C147.311 81.9876 146.959 81.36 146.959 80.5862C146.959 79.8124 147.311 79.1848 147.75 79.1848C148.188 79.1848 148.541 79.8124 148.541 80.5862Z" fill="#333333"/>
<path d="M140.184 84.5074C140.022 84.4688 139.854 84.4673 139.692 84.5031C139.529 84.5388 139.377 84.6109 139.247 84.714C139.116 84.817 139.011 84.9482 138.938 85.0978C138.866 85.2474 138.828 85.4115 138.828 85.5778C138.828 85.744 138.866 85.9081 138.938 86.0577C139.011 86.2073 139.116 86.3386 139.247 86.4416C139.377 86.5446 139.529 86.6167 139.692 86.6525C139.854 86.6883 140.022 86.6868 140.184 86.6482C140.529 86.6555 140.867 86.5431 141.139 86.3301C141.393 86.6288 141.707 86.8699 142.062 87.0375C142.417 87.205 142.803 87.295 143.195 87.3015C143.587 87.308 143.976 87.2308 144.336 87.0752C144.696 86.9196 145.019 86.689 145.283 86.3988C145.538 86.5648 145.837 86.6516 146.142 86.6482C146.304 86.6868 146.472 86.6883 146.635 86.6525C146.797 86.6167 146.949 86.5446 147.08 86.4416C147.21 86.3386 147.316 86.2073 147.388 86.0577C147.461 85.9081 147.498 85.744 147.498 85.5778C147.498 85.4115 147.461 85.2474 147.388 85.0978C147.316 84.9482 147.21 84.817 147.08 84.714C146.949 84.6109 146.797 84.5388 146.635 84.5031C146.472 84.4673 146.304 84.4688 146.142 84.5074" fill="#E3E3E3"/>
<path d="M140.184 84.5074C140.022 84.4688 139.854 84.4673 139.692 84.5031C139.529 84.5388 139.377 84.6109 139.247 84.714C139.116 84.817 139.011 84.9482 138.938 85.0978C138.866 85.2474 138.828 85.4115 138.828 85.5778C138.828 85.744 138.866 85.9081 138.938 86.0577C139.011 86.2073 139.116 86.3386 139.247 86.4416C139.377 86.5446 139.529 86.6167 139.692 86.6525C139.854 86.6883 140.022 86.6868 140.184 86.6482C140.529 86.6555 140.867 86.5431 141.139 86.3301C141.393 86.6288 141.707 86.8699 142.062 87.0375C142.417 87.205 142.803 87.295 143.195 87.3015C143.587 87.308 143.976 87.2308 144.336 87.0752C144.696 86.9196 145.019 86.689 145.283 86.3988C145.538 86.5648 145.837 86.6516 146.142 86.6482C146.304 86.6868 146.472 86.6883 146.635 86.6525C146.797 86.6167 146.949 86.5446 147.08 86.4416C147.21 86.3386 147.316 86.2073 147.388 86.0577C147.461 85.9081 147.498 85.744 147.498 85.5778C147.498 85.4115 147.461 85.2474 147.388 85.0978C147.316 84.9482 147.21 84.817 147.08 84.714C146.949 84.6109 146.797 84.5388 146.635 84.5031C146.472 84.4673 146.304 84.4688 146.142 84.5074" stroke="#333333" stroke-width="1.17" stroke-linecap="round" stroke-linejoin="round"/>
<path d="M141.49 91.2401H144.921" stroke="#333333" stroke-width="1.17" stroke-linecap="round" stroke-linejoin="round"/>
<path d="M131.277 77.6537C131.277 77.6537 131.398 80.9552 132.498 80.0954C133.599 79.2357 133.96 73.63 132.988 72.8992C132.017 72.1684 131.277 75.9514 131.277 77.6537Z" fill="#333333" stroke="#333333" stroke-width="1.17" stroke-linecap="round" stroke-linejoin="round"/>
<path d="M152.453 77.6537C152.453 77.6537 152.582 80.9552 153.674 80.0954C154.766 79.2357 155.144 73.63 154.164 72.8992C153.184 72.1684 152.453 75.9514 152.453 77.6537Z" fill="#333333" stroke="#333333" stroke-width="1.17" stroke-linecap="round" stroke-linejoin="round"/>
<path d="M131.277 74.9715C131.277 74.9715 131.646 75.2724 131.638 75.4186C133.228 76.2785 136.882 77.8606 142.815 78.1788C147.022 78.3241 151.188 77.3034 154.851 75.2294C154.851 74.7909 154.851 74.533 154.851 74.5244C154.705 70.6808 151.851 68.1184 148.317 67.1381C144.844 66.1817 141.155 66.3655 137.794 67.6626C136.089 68.3056 134.585 69.3884 133.435 70.8012C132.996 71.2827 130.675 74.49 131.277 74.9715Z" fill="#666666" stroke="#333333" stroke-width="1.17" stroke-linecap="round" stroke-linejoin="round"/>
<path d="M131.654 75.1864C135.321 75.9974 139.086 76.2725 142.831 76.0032C149.89 75.6765 154.799 75.1864 154.799 75.1864C151.555 78.2273 147.368 80.0659 142.934 80.3966C140.769 80.5373 138.603 80.1343 136.633 79.2243C134.662 78.3144 132.951 76.9263 131.654 75.1864Z" fill="#666666" stroke="#333333" stroke-width="1.17" stroke-linecap="round" stroke-linejoin="round"/>
<path d="M113.635 124.517L114.778 132.737L123.66 134.878L132.696 131.258L132.042 123.863L113.635 124.517Z" fill="#333333" stroke="#333333" stroke-width="1.17" stroke-linecap="round" stroke-linejoin="round"/>
<path d="M124.639 131.181C124.639 130.871 124.547 130.568 124.375 130.31C124.203 130.053 123.958 129.852 123.671 129.734C123.385 129.616 123.07 129.585 122.766 129.647C122.462 129.708 122.184 129.857 121.965 130.077C121.747 130.297 121.598 130.577 121.539 130.881C121.479 131.185 121.512 131.5 121.631 131.785C121.751 132.071 121.953 132.315 122.211 132.486C122.47 132.657 122.773 132.747 123.083 132.745C123.497 132.743 123.892 132.577 124.184 132.284C124.476 131.991 124.639 131.594 124.639 131.181Z" fill="#666666" stroke="#333333" stroke-width="1.17" stroke-linecap="round" stroke-linejoin="round"/>
<path d="M167.627 163.623H115.5V171.826H167.627V163.623Z" fill="#666666" stroke="#333333" stroke-width="1.17" stroke-linecap="round" stroke-linejoin="round"/>
<path d="M125.517 164.105H114.176C112.909 164.105 111.881 165.133 111.881 166.401V171.947C111.881 173.215 112.909 174.243 114.176 174.243H125.517C126.785 174.243 127.812 173.215 127.812 171.947V166.401C127.812 165.133 126.785 164.105 125.517 164.105Z" fill="#666666" stroke="#333333" stroke-width="1.17" stroke-linecap="round" stroke-linejoin="round"/>
<path d="M167.026 164.105H155.686C154.418 164.105 153.391 165.133 153.391 166.401V171.947C153.391 173.215 154.418 174.243 155.686 174.243H167.026C168.294 174.243 169.322 173.215 169.322 171.947V166.401C169.322 165.133 168.294 164.105 167.026 164.105Z" fill="#666666" stroke="#333333" stroke-width="1.17" stroke-linecap="round" stroke-linejoin="round"/>
<path d="M148.077 164.105H136.736V171.344H148.077V164.105Z" fill="white" stroke="#333333" stroke-width="1.17" stroke-linecap="round" stroke-linejoin="round"/>
<path d="M101.013 146.486C101.013 146.486 93.7739 146.004 91.1172 141.422" stroke="#333333" stroke-width="1.17" stroke-linecap="round" stroke-linejoin="round"/>
<path d="M181.503 125.248C188.104 125.248 193.454 119.627 193.454 112.694C193.454 105.76 188.104 100.14 181.503 100.14C174.903 100.14 169.553 105.76 169.553 112.694C169.553 119.627 174.903 125.248 181.503 125.248Z" fill="#3291FF" stroke="#333333" stroke-width="1.17" stroke-linecap="round" stroke-linejoin="round"/>
<path d="M181.505 114.714C186.671 114.714 190.859 110.961 190.859 106.331C190.859 101.701 186.671 97.947 181.505 97.947C176.338 97.947 172.15 101.701 172.15 106.331C172.15 110.961 176.338 114.714 181.505 114.714Z" fill="#3291FF" stroke="#333333" stroke-width="1.17" stroke-linecap="round" stroke-linejoin="round"/>
<path d="M181.505 108.558C186.671 108.558 190.859 104.804 190.859 100.174C190.859 95.5439 186.671 91.7904 181.505 91.7904C176.338 91.7904 172.15 95.5439 172.15 100.174C172.15 104.804 176.338 108.558 181.505 108.558Z" fill="#E3E3E3" stroke="#333333" stroke-width="1.17" stroke-linecap="round" stroke-linejoin="round"/>
<path d="M166.477 82.0998C166.477 82.0998 166.64 94.4646 167.268 98.1104C167.895 101.756 170.44 106.511 173.931 106.511C176.256 106.454 178.557 106.027 180.749 105.247C180.749 105.247 184.867 107.466 188.83 106.829C192.794 106.193 192.158 100.647 192.158 98.2308C192.158 95.8146 191.685 77.938 191.685 77.938C191.685 77.938 192.003 76.2183 190.412 75.8829C189.632 75.7073 188.838 75.6008 188.039 75.5648V71.7556C187.747 71.3194 187.341 70.9712 186.865 70.7485C186.39 70.5257 185.862 70.4369 185.34 70.4916C183.285 70.4916 183.122 70.9645 183.122 70.9645V67.4735C183.122 67.4735 181.402 64.6961 179.158 66.0461C178.706 66.3058 178.325 66.6732 178.049 67.1158C177.773 67.5583 177.61 68.0623 177.576 68.5827L177.413 71.919C177.413 71.919 173.613 70.4916 173.294 72.7101C172.976 74.9285 172.34 88.6003 172.34 88.6003C172.115 86.4507 171.692 84.3264 171.076 82.2545C170.285 80.1909 166.477 80.1909 166.477 82.0998Z" fill="#E3E3E3" stroke="#333333" stroke-width="1.17" stroke-linecap="round" stroke-linejoin="round"/>
<path d="M177.42 71.9448L177.729 86.5366" stroke="#333333" stroke-width="1.17" stroke-linecap="round" stroke-linejoin="round"/>
<path d="M183.121 70.9989L183.284 86.6914" stroke="#333333" stroke-width="1.17" stroke-linecap="round" stroke-linejoin="round"/>
<path d="M188.039 75.5906L187.721 86.5366" stroke="#333333" stroke-width="1.17" stroke-linecap="round" stroke-linejoin="round"/>
<path d="M175.357 86.3733L189.784 87.0095" stroke="#333333" stroke-width="1.17" stroke-linecap="round" stroke-linejoin="round"/>
<path d="M172.34 88.6003C172.344 89.1987 172.487 89.788 172.757 90.322C173.027 90.8561 173.417 91.3204 173.896 91.6786C175.461 92.6589 178.986 95.2041 179.373 99.3142" stroke="#333333" stroke-width="1.17" stroke-linecap="round" stroke-linejoin="round"/>
<path d="M41.3376 322.913H29.0859L45.4214 208.964H57.6817L41.3376 322.913Z" fill="#333333" stroke="#333333" stroke-width="1.17" stroke-miterlimit="10"/>
<path d="M65.8578 322.913H78.1094L61.7653 208.964H49.5137L65.8578 322.913Z" fill="white" stroke="#333333" stroke-width="1.17" stroke-miterlimit="10"/>
<path d="M215.277 322.913H203.025L219.369 208.964H231.621L215.277 322.913Z" fill="#333333" stroke="#333333" stroke-width="1.17" stroke-miterlimit="10"/>
<path d="M239.797 322.913H252.049L235.705 208.964H223.453L239.797 322.913Z" fill="white" stroke="#333333" stroke-width="1.17" stroke-miterlimit="10"/>
<path d="M248.36 191.105H14.5645V213.771H248.36V191.105Z" fill="#3291FF" stroke="#333333" stroke-width="1.17" stroke-miterlimit="10"/>
<path d="M254.061 191.105H20.2656V213.771H254.061V191.105Z" fill="#3291FF" stroke="#333333" stroke-width="1.17" stroke-miterlimit="10"/>
<path d="M24.0898 213.771H43.9418L54.1901 191.105H34.3468L24.0898 213.771Z" fill="#333333"/>
<path d="M102.639 191.105H82.796L72.5391 213.771H92.3824L102.639 191.105Z" fill="#333333"/>
<path d="M247.981 191.105H228.129L217.881 213.771H237.724L247.981 191.105Z" fill="#333333"/>
<path d="M199.534 191.105H179.691L169.434 213.771H189.277L199.534 191.105Z" fill="#333333"/>
<path d="M151.087 191.105H131.243L120.986 213.771H140.83L151.087 191.105Z" fill="#333333"/>
<path d="M252.779 201.156H214.09" stroke="#333333" stroke-width="1.17" stroke-miterlimit="10"/>
<path d="M252.109 204.948H245.996" stroke="#333333" stroke-width="1.17" stroke-miterlimit="10"/>
<path d="M19.2754 204.003H57.9647" stroke="#333333" stroke-width="1.17" stroke-miterlimit="10"/>
<path d="M19.9551 199.738H68.8326" stroke="#333333" stroke-width="1.17" stroke-miterlimit="10"/>
<path d="M317.871 317.943H251.549V322.921H317.871V317.943Z" fill="#333333" stroke="#333333" stroke-width="1.17" stroke-linecap="round" stroke-linejoin="round"/>
<path d="M306.678 317.806H262.744L279.965 224.115H289.457L306.678 317.806Z" fill="#3291FF" stroke="#333333" stroke-width="1.17" stroke-linecap="round" stroke-linejoin="round"/>
<path d="M273.568 258.931H295.862L293.721 247.323H275.701L273.568 258.931Z" fill="white" stroke="#333333" stroke-width="1.17" stroke-linecap="round" stroke-linejoin="round"/>
<path d="M300.074 302.165L301.183 308.57" stroke="#333333" stroke-width="1.17" stroke-linecap="round" stroke-linejoin="round"/>
<path d="M287.531 229.291L298.691 294.099" stroke="#333333" stroke-width="1.17" stroke-linecap="round" stroke-linejoin="round"/>
<path d="M353.551 322.913H359.492" stroke="#333333" stroke-width="1.17" stroke-linecap="round" stroke-linejoin="round"/>
<path d="M0.498047 322.913H345.254" stroke="#333333" stroke-width="1.17" stroke-linecap="round" stroke-linejoin="round"/>
</g>
<defs>
<clipPath id="clip0_3172_22625">
<rect width="360" height="326" fill="white"/>
</clipPath>
</defs>
</svg>
