<?xml version="1.0" encoding="UTF-8"?>
<!DOCTYPE svg PUBLIC "-//W3C//DTD SVG 1.1//EN" "http://www.w3.org/Graphics/SVG/1.1/DTD/svg11.dtd">
<svg xmlns="http://www.w3.org/2000/svg" version="1.1" width="433px" height="424px" style="shape-rendering:geometricPrecision; text-rendering:geometricPrecision; image-rendering:optimizeQuality; fill-rule:evenodd; clip-rule:evenodd" xmlns:xlink="http://www.w3.org/1999/xlink">
<g><path style="opacity:1" fill="#fffefe" d="M -0.5,-0.5 C 143.833,-0.5 288.167,-0.5 432.5,-0.5C 432.5,140.833 432.5,282.167 432.5,423.5C 288.167,423.5 143.833,423.5 -0.5,423.5C -0.5,282.167 -0.5,140.833 -0.5,-0.5 Z"/></g>
<g><path style="opacity:1" fill="#fffcfb" d="M 224.5,4.5 C 270.419,8.74791 311.085,25.5812 346.5,55C 334.167,55.6667 321.833,55.6667 309.5,55C 306.51,51.0023 303.01,50.5023 299,53.5C 295.946,59.2895 297.613,62.6228 304,63.5C 306.348,63.7418 308.182,62.9084 309.5,61C 323.833,60.3333 338.167,60.3333 352.5,61C 369.537,77.2576 383.537,95.7576 394.5,116.5C 379.845,117.666 365.178,117.833 350.5,117C 347,113.5 343.5,110 340,106.5C 339.54,97.6714 335.54,95.3381 328,99.5C 325.456,106.978 328.289,110.478 336.5,110C 340.5,114 344.5,118 348.5,122C 364.833,122.333 381.167,122.667 397.5,123C 404.729,137.522 410.062,152.688 413.5,168.5C 414.444,174.154 414.944,179.82 415,185.5C 410.469,175.427 403.802,167.094 395,160.5C 393.5,160.667 392.667,161.5 392.5,163C 394.264,166.792 395.931,170.625 397.5,174.5C 388.19,175.498 378.857,175.832 369.5,175.5C 367.087,171.315 363.754,170.481 359.5,173C 356.09,180.937 358.757,184.27 367.5,183C 368.167,182.333 368.833,181.667 369.5,181C 374.5,180.333 379.5,180.333 384.5,181C 379.743,187.846 374.743,194.512 369.5,201C 364.467,201.829 359.467,201.662 354.5,200.5C 352.559,197.666 349.893,196.832 346.5,198C 343.713,200.167 342.88,203.001 344,206.5C 347.506,210.431 351.006,210.431 354.5,206.5C 360.472,205.67 366.472,205.17 372.5,205C 378.5,197 384.5,189 390.5,181C 393.5,180.333 396.5,180.333 399.5,181C 409.603,208.748 412.27,237.248 407.5,266.5C 395.34,267.331 383.007,267.831 370.5,268C 367.961,270.37 365.628,272.87 363.5,275.5C 356.702,281.797 350.035,288.297 343.5,295C 336.204,294.295 333.037,297.462 334,304.5C 341.407,309.797 345.407,307.797 346,298.5C 353.036,291.632 359.869,284.632 366.5,277.5C 368.63,275.873 370.63,274.04 372.5,272C 383.833,271.333 395.167,271.333 406.5,272C 402.1,289.63 395.1,306.13 385.5,321.5C 383.639,324.022 381.639,326.522 379.5,329C 361.995,329.168 344.662,329.668 327.5,330.5C 315.702,341.798 304.035,353.298 292.5,365C 269.169,365.5 245.836,365.667 222.5,365.5C 214.28,358.874 210.447,360.874 211,371.5C 215.213,375.656 219.046,375.323 222.5,370.5C 246.169,370.667 269.836,370.5 293.5,370C 305.368,357.965 317.368,346.131 329.5,334.5C 344.837,334.333 360.17,334.5 375.5,335C 371.611,339.956 367.611,344.79 363.5,349.5C 357.864,355.968 351.697,361.968 345,367.5C 345.81,358.763 343.81,350.763 339,343.5C 337.867,341.789 336.367,341.289 334.5,342C 333.611,350.002 331.111,357.502 327,364.5C 322.037,371.296 316.537,377.63 310.5,383.5C 297.816,383.832 285.149,383.499 272.5,382.5C 269.006,378.569 265.506,378.569 262,382.5C 260.183,389.856 263.017,392.689 270.5,391C 271.381,390.292 272.047,389.458 272.5,388.5C 282.348,388.173 292.014,388.506 301.5,389.5C 281.645,401.782 260.312,410.115 237.5,414.5C 215.763,417.451 194.097,416.951 172.5,413C 161.504,409.335 151.171,404.335 141.5,398C 169.173,397.167 196.839,397.333 224.5,398.5C 226.914,401.881 229.914,402.381 233.5,400C 237.333,392.33 234.999,388.997 226.5,390C 225.167,390.667 224.167,391.667 223.5,393C 193.5,393.667 163.5,393.667 133.5,393C 128.339,389.334 123.339,385.501 118.5,381.5C 118.5,381.167 118.5,380.833 118.5,380.5C 130.655,379.505 142.989,379.171 155.5,379.5C 163.308,384.904 167.141,382.904 167,373.5C 163.015,369.412 159.181,369.578 155.5,374C 140.833,374.667 126.167,374.667 111.5,374C 103.77,366.205 97.7704,357.705 93.5,348.5C 128.113,362.728 163.779,366.061 200.5,358.5C 212.927,355.635 224.927,351.469 236.5,346C 250.845,345.167 265.178,345.334 279.5,346.5C 282.3,349.988 285.466,350.322 289,347.5C 291.951,341.994 290.451,338.661 284.5,337.5C 281.898,337.467 279.898,338.467 278.5,340.5C 268.652,340.827 258.986,340.494 249.5,339.5C 255.459,336.193 261.125,332.527 266.5,328.5C 269.956,326.217 273.29,323.717 276.5,321C 302.833,320.667 329.167,320.333 355.5,320C 356.381,319.292 357.047,318.458 357.5,317.5C 362.965,312.536 368.298,307.37 373.5,302C 382.209,302.325 384.875,298.659 381.5,291C 374.515,288.296 371.015,290.796 371,298.5C 365.297,304.035 359.797,309.702 354.5,315.5C 353.833,315.833 353.167,316.167 352.5,316.5C 328.994,316.831 305.661,316.498 282.5,315.5C 295.378,303.967 306.378,290.967 315.5,276.5C 325.632,266.869 335.632,257.036 345.5,247C 347.134,246.506 348.801,246.34 350.5,246.5C 365.182,246.167 379.848,246.501 394.5,247.5C 397.354,250.769 400.687,251.269 404.5,249C 407.836,241.027 405.169,237.694 396.5,239C 395.643,239.689 394.977,240.522 394.5,241.5C 379.845,242.666 365.178,242.833 350.5,242C 351.833,240.667 353.167,239.333 354.5,238C 360.5,237.667 366.5,237.333 372.5,237C 378.167,231.333 383.833,225.667 389.5,220C 394.63,220.695 397.63,218.529 398.5,213.5C 396.848,207.43 393.182,205.93 387.5,209C 386.718,211.74 386.218,214.574 386,217.5C 381.167,222.333 376.333,227.167 371.5,232C 365.5,232.333 359.5,232.667 353.5,233C 350,235.334 347,238.168 344.5,241.5C 337.535,247.964 330.702,254.631 324,261.5C 332.272,242.756 337.605,223.089 340,202.5C 340.5,192.172 340.666,181.839 340.5,171.5C 340.007,161.382 338.673,151.382 336.5,141.5C 349.504,141.333 362.504,141.5 375.5,142C 378.864,145.1 382.364,145.267 386,142.5C 387.808,137.245 386.141,133.911 381,132.5C 378.63,132.6 376.797,133.6 375.5,135.5C 361.85,136.499 348.183,136.833 334.5,136.5C 330.828,121.138 324.828,106.805 316.5,93.5C 316.196,92.8501 315.863,92.1835 315.5,91.5C 322.811,90.3354 330.144,90.1687 337.5,91C 340.833,94.3333 344.167,97.6667 347.5,101C 352.533,101.171 357.533,101.671 362.5,102.5C 364.441,105.334 367.107,106.168 370.5,105C 374.487,101.287 374.487,97.6203 370.5,94C 366.732,92.7909 363.732,93.7909 361.5,97C 357.833,97.6667 354.167,97.6667 350.5,97C 347.167,93.6667 343.833,90.3333 340.5,87C 331.167,86.6667 321.833,86.3333 312.5,86C 311.833,85.3333 311.167,84.6667 310.5,84C 315.5,83.6667 320.5,83.3333 325.5,83C 329.132,80.3702 332.465,77.3702 335.5,74C 341.295,74.191 346.962,74.8577 352.5,76C 357.129,70.3444 355.963,66.511 349,64.5C 346.672,64.817 344.839,65.9837 343.5,68C 340.167,68.3333 336.833,68.6667 333.5,69C 330.5,72 327.5,75 324.5,78C 318.5,78.6667 312.5,78.6667 306.5,78C 293.75,60.5822 278.417,45.9155 260.5,34C 263.833,33.3333 267.167,33.3333 270.5,34C 275.167,36.6667 279.833,39.3333 284.5,42C 290.167,42.3333 295.833,42.6667 301.5,43C 305.54,47.7257 309.374,47.5591 313,42.5C 313.494,35.6759 310.328,33.1759 303.5,35C 301.016,37.5944 297.85,38.7611 294,38.5C 286.39,37.7852 279.556,34.9519 273.5,30C 266.174,29.5003 258.841,29.3337 251.5,29.5C 231.861,17.5059 210.527,9.83925 187.5,6.5C 199.767,4.78446 212.1,4.11779 224.5,4.5 Z"/></g>
<g><path style="opacity:1" fill="#fa9c1a" d="M 223.5,0.5 C 223.511,2.01739 224.177,3.18405 225.5,4C 225.272,4.39877 224.938,4.56544 224.5,4.5C 212.1,4.11779 199.767,4.78446 187.5,6.5C 210.527,9.83925 231.861,17.5059 251.5,29.5C 254.239,32.2327 256.573,35.2327 258.5,38.5C 229.977,20.3815 198.81,10.3815 165,8.5C 164.342,6.89201 164.842,5.72535 166.5,5C 185.298,1.0652 204.298,-0.434801 223.5,0.5 Z"/></g>
<g><path style="opacity:1" fill="#fead22" d="M 223.5,0.5 C 311.332,9.14441 372.832,53.8111 408,134.5C 412.591,146.532 416.091,158.866 418.5,171.5C 416.589,170.925 414.922,169.925 413.5,168.5C 410.062,152.688 404.729,137.522 397.5,123C 381.167,122.667 364.833,122.333 348.5,122C 344.5,118 340.5,114 336.5,110C 328.289,110.478 325.456,106.978 328,99.5C 335.54,95.3381 339.54,97.6714 340,106.5C 343.5,110 347,113.5 350.5,117C 365.178,117.833 379.845,117.666 394.5,116.5C 383.537,95.7576 369.537,77.2576 352.5,61C 338.167,60.3333 323.833,60.3333 309.5,61C 308.182,62.9084 306.348,63.7418 304,63.5C 297.613,62.6228 295.946,59.2895 299,53.5C 303.01,50.5023 306.51,51.0023 309.5,55C 321.833,55.6667 334.167,55.6667 346.5,55C 311.085,25.5812 270.419,8.74791 224.5,4.5C 224.938,4.56544 225.272,4.39877 225.5,4C 224.177,3.18405 223.511,2.01739 223.5,0.5 Z"/></g>
<g><path style="opacity:1" fill="#f3800e" d="M 148.5,59.5 C 136.167,47.8333 124.167,35.8333 112.5,23.5C 120.679,18.5792 129.345,14.4125 138.5,11C 141.406,9.68152 144.406,9.34819 147.5,10C 148.492,26.4226 148.825,42.9226 148.5,59.5 Z"/></g>
<g><path style="opacity:1" fill="#f17a10" d="M 112.5,23.5 C 124.167,35.8333 136.167,47.8333 148.5,59.5C 149.472,62.986 151.472,65.8193 154.5,68C 160.707,71.606 166.373,75.9393 171.5,81C 188.532,99.6986 206.532,117.365 225.5,134C 234.663,140.752 244.33,146.752 254.5,152C 260.085,153.817 265.752,155.317 271.5,156.5C 269.154,169.832 262.154,179.832 250.5,186.5C 199.5,135.167 148.5,83.8333 97.5,32.5C 101.708,28.3151 106.708,25.3151 112.5,23.5 Z"/></g>
<g><path style="opacity:1" fill="#fda618" d="M 251.5,29.5 C 258.841,29.3337 266.174,29.5003 273.5,30C 279.556,34.9519 286.39,37.7852 294,38.5C 297.85,38.7611 301.016,37.5944 303.5,35C 310.328,33.1759 313.494,35.6759 313,42.5C 309.374,47.5591 305.54,47.7257 301.5,43C 295.833,42.6667 290.167,42.3333 284.5,42C 279.833,39.3333 275.167,36.6667 270.5,34C 267.167,33.3333 263.833,33.3333 260.5,34C 278.417,45.9155 293.75,60.5822 306.5,78C 312.5,78.6667 318.5,78.6667 324.5,78C 327.5,75 330.5,72 333.5,69C 336.833,68.6667 340.167,68.3333 343.5,68C 344.839,65.9837 346.672,64.817 349,64.5C 355.963,66.511 357.129,70.3444 352.5,76C 346.962,74.8577 341.295,74.191 335.5,74C 332.465,77.3702 329.132,80.3702 325.5,83C 320.5,83.3333 315.5,83.6667 310.5,84C 311.167,84.6667 311.833,85.3333 312.5,86C 321.833,86.3333 331.167,86.6667 340.5,87C 343.833,90.3333 347.167,93.6667 350.5,97C 354.167,97.6667 357.833,97.6667 361.5,97C 363.732,93.7909 366.732,92.7909 370.5,94C 374.487,97.6203 374.487,101.287 370.5,105C 367.107,106.168 364.441,105.334 362.5,102.5C 357.533,101.671 352.533,101.171 347.5,101C 344.167,97.6667 340.833,94.3333 337.5,91C 330.144,90.1687 322.811,90.3354 315.5,91.5C 315.863,92.1835 316.196,92.8501 316.5,93.5C 313.606,92.1177 311.106,90.1177 309,87.5C 308.601,87.7284 308.435,88.0618 308.5,88.5C 294.833,68.8333 278.167,52.1667 258.5,38.5C 256.573,35.2327 254.239,32.2327 251.5,29.5 Z"/></g>
<g><path style="opacity:1" fill="#f07412" d="M 97.5,32.5 C 148.5,83.8333 199.5,135.167 250.5,186.5C 244.471,189.593 238.138,191.926 231.5,193.5C 231.611,192.883 231.944,192.383 232.5,192C 212.298,171.965 192.298,151.799 172.5,131.5C 174.924,131.808 177.257,131.474 179.5,130.5C 169.427,120.764 160.094,110.431 151.5,99.5C 150.501,109.812 150.168,120.145 150.5,130.5C 149.671,123.345 149.171,116.011 149,108.5C 126.965,86.2984 104.799,64.2984 82.5,42.5C 86.9756,38.4254 91.9756,35.0921 97.5,32.5 Z"/></g>
<g><path style="opacity:1" fill="#fffbf4" d="M 306.5,38.5 C 308.625,39.3676 308.791,40.3676 307,41.5C 305.317,40.8235 305.15,39.8235 306.5,38.5 Z"/></g>
<g><path style="opacity:1" fill="#ee6d12" d="M 82.5,42.5 C 104.799,64.2984 126.965,86.2984 149,108.5C 149.171,116.011 149.671,123.345 150.5,130.5C 157.648,131.492 164.981,131.825 172.5,131.5C 192.298,151.799 212.298,171.965 232.5,192C 231.944,192.383 231.611,192.883 231.5,193.5C 219.894,195.053 208.228,195.719 196.5,195.5C 200.647,194.675 204.981,194.175 209.5,194C 162.917,146.916 115.917,100.416 68.5,54.5C 72.847,50.1549 77.5137,46.1549 82.5,42.5 Z"/></g>
<g><path style="opacity:1" fill="#ec6714" d="M 68.5,54.5 C 115.917,100.416 162.917,146.916 209.5,194C 204.981,194.175 200.647,194.675 196.5,195.5C 191.786,195.353 187.119,195.686 182.5,196.5C 141.085,153.584 99.0845,111.084 56.5,69C 55.9056,68.5357 55.2389,68.369 54.5,68.5C 58.8333,63.5 63.5,58.8333 68.5,54.5 Z"/></g>
<g><path style="opacity:1" fill="#fff9f1" d="M 302.5,56.5 C 305.957,56.6672 306.29,57.6672 303.5,59.5C 302.614,58.675 302.281,57.675 302.5,56.5 Z"/></g>
<g><path style="opacity:1" fill="#ea6016" d="M 54.5,68.5 C 55.2389,68.369 55.9056,68.5357 56.5,69C 99.0845,111.084 141.085,153.584 182.5,196.5C 175.695,197.194 169.028,198.528 162.5,200.5C 123.167,160.5 83.5,120.833 43.5,81.5C 46.8207,76.8482 50.4874,72.5149 54.5,68.5 Z"/></g>
<g><path style="opacity:1" fill="#fff7e7" d="M 348.5,69.5 C 350.465,69.9483 350.798,70.9483 349.5,72.5C 348.614,71.675 348.281,70.675 348.5,69.5 Z"/></g>
<g><path style="opacity:1" fill="#e95a17" d="M 43.5,81.5 C 83.5,120.833 123.167,160.5 162.5,200.5C 156.487,202.007 150.82,204.341 145.5,207.5C 108.5,169.833 71.1667,132.5 33.5,95.5C 36.4453,90.5549 39.7786,85.8883 43.5,81.5 Z"/></g>
<g><path style="opacity:1" fill="#fba01f" d="M 316.5,93.5 C 324.828,106.805 330.828,121.138 334.5,136.5C 348.183,136.833 361.85,136.499 375.5,135.5C 376.797,133.6 378.63,132.6 381,132.5C 386.141,133.911 387.808,137.245 386,142.5C 382.364,145.267 378.864,145.1 375.5,142C 362.504,141.5 349.504,141.333 336.5,141.5C 338.673,151.382 340.007,161.382 340.5,171.5C 339.167,170.5 337.833,169.5 336.5,168.5C 333.297,139.553 323.964,112.886 308.5,88.5C 308.435,88.0618 308.601,87.7284 309,87.5C 311.106,90.1177 313.606,92.1177 316.5,93.5 Z"/></g>
<g><path style="opacity:1" fill="#fff2da" d="M 366.5,97.5 C 369.861,98.2032 370.194,99.5365 367.5,101.5C 366.571,100.311 366.238,98.9778 366.5,97.5 Z"/></g>
<g><path style="opacity:1" fill="#fefbf9" d="M 172.5,131.5 C 164.981,131.825 157.648,131.492 150.5,130.5C 150.168,120.145 150.501,109.812 151.5,99.5C 160.094,110.431 169.427,120.764 179.5,130.5C 177.257,131.474 174.924,131.808 172.5,131.5 Z"/></g>
<g><path style="opacity:1" fill="#e75419" d="M 33.5,95.5 C 71.1667,132.5 108.5,169.833 145.5,207.5C 140.238,210.102 135.238,213.102 130.5,216.5C 95.7839,180.783 60.4506,145.783 24.5,111.5C 27.5,106.167 30.5,100.833 33.5,95.5 Z"/></g>
<g><path style="opacity:1" fill="#fff4e4" d="M 331.5,101.5 C 334.569,101.963 335.069,103.296 333,105.5C 331.812,104.437 331.312,103.103 331.5,101.5 Z"/></g>
<g><path style="opacity:1" fill="#e54e1b" d="M 24.5,111.5 C 60.4506,145.783 95.7839,180.783 130.5,216.5C 125.167,221.167 120.167,226.167 115.5,231.5C 82.8833,197.216 49.5499,163.549 15.5,130.5C 18.227,124.046 21.227,117.712 24.5,111.5 Z"/></g>
<g><path style="opacity:1" fill="#e3461e" d="M 15.5,130.5 C 49.5499,163.549 82.8833,197.216 115.5,231.5C 109.709,240.083 104.709,249.083 100.5,258.5C 96.8333,252.833 92.1667,248.167 86.5,244.5C 88.5351,236.564 91.0351,228.897 94,221.5C 89.6485,226.887 85.8151,232.553 82.5,238.5C 56.473,213.14 30.8063,187.473 5.5,161.5C 8.06309,150.913 11.3964,140.58 15.5,130.5 Z"/></g>
<g><path style="opacity:1" fill="#fffaf3" d="M 379.5,137.5 C 382.957,137.667 383.29,138.667 380.5,140.5C 379.614,139.675 379.281,138.675 379.5,137.5 Z"/></g>
<g><path style="opacity:1" fill="#fca31d" d="M 413.5,168.5 C 414.922,169.925 416.589,170.925 418.5,171.5C 420.763,185.062 421.763,198.728 421.5,212.5C 420.167,212.5 418.833,212.5 417.5,212.5C 415.874,199.122 411.374,186.788 404,175.5C 403.346,174.304 402.846,174.304 402.5,175.5C 403.9,178.035 404.9,180.702 405.5,183.5C 403.037,181.539 400.703,179.372 398.5,177C 388.658,176.83 378.991,176.33 369.5,175.5C 378.857,175.832 388.19,175.498 397.5,174.5C 395.931,170.625 394.264,166.792 392.5,163C 392.667,161.5 393.5,160.667 395,160.5C 403.802,167.094 410.469,175.427 415,185.5C 414.944,179.82 414.444,174.154 413.5,168.5 Z"/></g>
<g><path style="opacity:1" fill="#e03d21" d="M 5.5,161.5 C 30.8063,187.473 56.473,213.14 82.5,238.5C 78.9538,246.139 76.6204,254.139 75.5,262.5C 50.8333,238.167 26.1667,213.833 1.5,189.5C 1.99504,180.035 3.32837,170.701 5.5,161.5 Z"/></g>
<g><path style="opacity:1" fill="#f99a1f" d="M 369.5,175.5 C 378.991,176.33 388.658,176.83 398.5,177C 400.703,179.372 403.037,181.539 405.5,183.5C 415.179,212.168 416.845,241.168 410.5,270.5C 410.262,268.596 409.262,267.262 407.5,266.5C 412.27,237.248 409.603,208.748 399.5,181C 396.5,180.333 393.5,180.333 390.5,181C 384.5,189 378.5,197 372.5,205C 366.472,205.17 360.472,205.67 354.5,206.5C 351.006,210.431 347.506,210.431 344,206.5C 342.88,203.001 343.713,200.167 346.5,198C 349.893,196.832 352.559,197.666 354.5,200.5C 359.467,201.662 364.467,201.829 369.5,201C 374.743,194.512 379.743,187.846 384.5,181C 379.5,180.333 374.5,180.333 369.5,181C 368.833,181.667 368.167,182.333 367.5,183C 358.757,184.27 356.09,180.937 359.5,173C 363.754,170.481 367.087,171.315 369.5,175.5 Z"/></g>
<g><path style="opacity:1" fill="#fff6eb" d="M 362.5,176.5 C 365.957,176.667 366.29,177.667 363.5,179.5C 362.614,178.675 362.281,177.675 362.5,176.5 Z"/></g>
<g><path style="opacity:1" fill="#df3623" d="M 1.5,189.5 C 26.1667,213.833 50.8333,238.167 75.5,262.5C 74.269,272.78 74.269,283.113 75.5,293.5C 54.284,270.781 32.4507,248.448 10,226.5C 9.72158,227.416 9.22158,228.082 8.5,228.5C 9.40442,220.517 11.0711,212.684 13.5,205C 12.4015,201.446 10.4015,200.779 7.5,203C 4.44758,206.716 2.28091,210.882 1,215.5C 0.289412,206.806 0.456078,198.139 1.5,189.5 Z"/></g>
<g><path style="opacity:1" fill="#fff3e6" d="M 348.5,201.5 C 350.048,201.821 350.715,202.821 350.5,204.5C 347.752,204.598 347.086,203.598 348.5,201.5 Z"/></g>
<g><path style="opacity:1" fill="#f68c19" d="M 350.5,246.5 C 349.089,244.086 347.089,242.419 344.5,241.5C 347,238.168 350,235.334 353.5,233C 359.5,232.667 365.5,232.333 371.5,232C 376.333,227.167 381.167,222.333 386,217.5C 386.218,214.574 386.718,211.74 387.5,209C 393.182,205.93 396.848,207.43 398.5,213.5C 397.63,218.529 394.63,220.695 389.5,220C 383.833,225.667 378.167,231.333 372.5,237C 366.5,237.333 360.5,237.667 354.5,238C 353.167,239.333 351.833,240.667 350.5,242C 365.178,242.833 379.845,242.666 394.5,241.5C 394.977,240.522 395.643,239.689 396.5,239C 405.169,237.694 407.836,241.027 404.5,249C 400.687,251.269 397.354,250.769 394.5,247.5C 379.848,246.501 365.182,246.167 350.5,246.5 Z"/></g>
<g><path style="opacity:1" fill="#fff1e0" d="M 391.5,211.5 C 393.476,212.427 393.809,213.76 392.5,215.5C 390.358,214.563 390.024,213.23 391.5,211.5 Z"/></g>
<g><path style="opacity:1" fill="#fefaf5" d="M 399.5,242.5 C 401.625,243.368 401.791,244.368 400,245.5C 398.317,244.824 398.15,243.824 399.5,242.5 Z"/></g>
<g><path style="opacity:1" fill="#dc2f27" d="M 75.5,293.5 C 77.1924,310.267 81.6924,326.267 89,341.5C 124.05,357.71 160.55,362.043 198.5,354.5C 199.6,355.605 200.267,356.938 200.5,358.5C 163.779,366.061 128.113,362.728 93.5,348.5C 97.7704,357.705 103.77,366.205 111.5,374C 126.167,374.667 140.833,374.667 155.5,374C 159.181,369.578 163.015,369.412 167,373.5C 167.141,382.904 163.308,384.904 155.5,379.5C 142.5,378.167 129.5,378.167 116.5,379.5C 116.565,379.938 116.399,380.272 116,380.5C 81.632,345.965 47.132,311.632 12.5,277.5C 7.70097,261.492 6.36764,245.159 8.5,228.5C 9.22158,228.082 9.72158,227.416 10,226.5C 32.4507,248.448 54.284,270.781 75.5,293.5 Z"/></g>
<g><path style="opacity:1" fill="#e03d23" d="M 86.5,244.5 C 92.1667,248.167 96.8333,252.833 100.5,258.5C 95.1854,274.72 92.3521,291.387 92,308.5C 84.4014,287.671 82.568,266.338 86.5,244.5 Z"/></g>
<g><path style="opacity:1" fill="#f38223" d="M 336.5,168.5 C 337.833,169.5 339.167,170.5 340.5,171.5C 340.666,181.839 340.5,192.172 340,202.5C 337.605,223.089 332.272,242.756 324,261.5C 330.702,254.631 337.535,247.964 344.5,241.5C 347.089,242.419 349.089,244.086 350.5,246.5C 348.801,246.34 347.134,246.506 345.5,247C 335.632,257.036 325.632,266.869 315.5,276.5C 315.262,274.596 314.262,273.262 312.5,272.5C 331.189,240.403 339.189,205.737 336.5,168.5 Z"/></g>
<g><path style="opacity:1" fill="#f48516" d="M 407.5,266.5 C 409.262,267.262 410.262,268.596 410.5,270.5C 407.281,289.93 399.948,307.596 388.5,323.5C 387.5,322.833 386.5,322.167 385.5,321.5C 395.1,306.13 402.1,289.63 406.5,272C 395.167,271.333 383.833,271.333 372.5,272C 370.63,274.04 368.63,275.873 366.5,277.5C 365.5,276.833 364.5,276.167 363.5,275.5C 365.628,272.87 367.961,270.37 370.5,268C 383.007,267.831 395.34,267.331 407.5,266.5 Z"/></g>
<g><path style="opacity:1" fill="#d92429" d="M 12.5,277.5 C 47.132,311.632 81.632,345.965 116,380.5C 116.399,380.272 116.565,379.938 116.5,379.5C 117.167,379.833 117.833,380.167 118.5,380.5C 118.5,380.833 118.5,381.167 118.5,381.5C 125.947,390.468 134.28,399.302 143.5,408C 142.906,408.464 142.239,408.631 141.5,408.5C 83.8439,387.349 42.3439,348.683 17,292.5C 15.1835,287.554 13.6835,282.554 12.5,277.5 Z"/></g>
<g><path style="opacity:1" fill="#f0781c" d="M 363.5,275.5 C 364.5,276.167 365.5,276.833 366.5,277.5C 359.869,284.632 353.036,291.632 346,298.5C 345.407,307.797 341.407,309.797 334,304.5C 333.037,297.462 336.204,294.295 343.5,295C 350.035,288.297 356.702,281.797 363.5,275.5 Z"/></g>
<g><path style="opacity:1" fill="#f27e1c" d="M 357.5,317.5 C 357.027,316.094 356.027,315.427 354.5,315.5C 359.797,309.702 365.297,304.035 371,298.5C 371.015,290.796 374.515,288.296 381.5,291C 384.875,298.659 382.209,302.325 373.5,302C 368.298,307.37 362.965,312.536 357.5,317.5 Z"/></g>
<g><path style="opacity:1" fill="#fef7f1" d="M 375.5,294.5 C 376.5,294.5 377.5,294.5 378.5,294.5C 377.754,298.31 376.754,298.31 375.5,294.5 Z"/></g>
<g><path style="opacity:1" fill="#fefbf8" d="M 338.5,300.5 C 340.337,300.639 340.67,301.306 339.5,302.5C 338.702,302.043 338.369,301.376 338.5,300.5 Z"/></g>
<g><path style="opacity:1" fill="#ec661a" d="M 312.5,272.5 C 314.262,273.262 315.262,274.596 315.5,276.5C 306.378,290.967 295.378,303.967 282.5,315.5C 281.957,315.56 281.624,315.893 281.5,316.5C 305.33,317.829 328.997,317.829 352.5,316.5C 353.167,316.167 353.833,315.833 354.5,315.5C 356.027,315.427 357.027,316.094 357.5,317.5C 357.047,318.458 356.381,319.292 355.5,320C 329.167,320.333 302.833,320.667 276.5,321C 273.29,323.717 269.956,326.217 266.5,328.5C 265.833,327.5 265.167,326.5 264.5,325.5C 284.026,310.977 300.026,293.31 312.5,272.5 Z"/></g>
<g><path style="opacity:1" fill="#f08b4d" d="M 282.5,315.5 C 305.661,316.498 328.994,316.831 352.5,316.5C 328.997,317.829 305.33,317.829 281.5,316.5C 281.624,315.893 281.957,315.56 282.5,315.5 Z"/></g>
<g><path style="opacity:1" fill="#e75827" d="M 264.5,325.5 C 265.167,326.5 265.833,327.5 266.5,328.5C 261.125,332.527 255.459,336.193 249.5,339.5C 248.711,339.783 248.044,340.283 247.5,341C 258.008,341.825 268.342,341.659 278.5,340.5C 279.898,338.467 281.898,337.467 284.5,337.5C 290.451,338.661 291.951,341.994 289,347.5C 285.466,350.322 282.3,349.988 279.5,346.5C 265.178,345.334 250.845,345.167 236.5,346C 224.927,351.469 212.927,355.635 200.5,358.5C 200.267,356.938 199.6,355.605 198.5,354.5C 222.208,348.709 244.208,339.042 264.5,325.5 Z"/></g>
<g><path style="opacity:1" fill="#f07b2a" d="M 385.5,321.5 C 386.5,322.167 387.5,322.833 388.5,323.5C 382.378,334.073 375.045,343.74 366.5,352.5C 366.5,350.5 365.5,349.5 363.5,349.5C 367.611,344.79 371.611,339.956 375.5,335C 360.17,334.5 344.837,334.333 329.5,334.5C 335.653,333.672 341.987,333.172 348.5,333C 347.833,332.333 347.167,331.667 346.5,331C 340.175,330.5 333.842,330.334 327.5,330.5C 344.662,329.668 361.995,329.168 379.5,329C 381.639,326.522 383.639,324.022 385.5,321.5 Z"/></g>
<g><path style="opacity:1" fill="#f2a88b" d="M 249.5,339.5 C 258.986,340.494 268.652,340.827 278.5,340.5C 268.342,341.659 258.008,341.825 247.5,341C 248.044,340.283 248.711,339.783 249.5,339.5 Z"/></g>
<g><path style="opacity:1" fill="#fdeae2" d="M 283.5,341.5 C 284.995,341.415 285.995,342.081 286.5,343.5C 283.623,344.911 282.623,344.244 283.5,341.5 Z"/></g>
<g><path style="opacity:1" fill="#ec6721" d="M 363.5,349.5 C 365.5,349.5 366.5,350.5 366.5,352.5C 358.302,361.865 349.302,370.365 339.5,378C 338.207,378.49 336.873,378.657 335.5,378.5C 338.284,372.897 339.95,366.897 340.5,360.5C 340.707,357.168 339.874,354.168 338,351.5C 333.374,364.583 325.874,375.749 315.5,385C 314.906,385.464 314.239,385.631 313.5,385.5C 312.5,384.833 311.5,384.167 310.5,383.5C 316.537,377.63 322.037,371.296 327,364.5C 331.111,357.502 333.611,350.002 334.5,342C 336.367,341.289 337.867,341.789 339,343.5C 343.81,350.763 345.81,358.763 345,367.5C 351.697,361.968 357.864,355.968 363.5,349.5 Z"/></g>
<g><path style="opacity:1" fill="#ea632b" d="M 327.5,330.5 C 333.842,330.334 340.175,330.5 346.5,331C 347.167,331.667 347.833,332.333 348.5,333C 341.987,333.172 335.653,333.672 329.5,334.5C 317.368,346.131 305.368,357.965 293.5,370C 269.836,370.5 246.169,370.667 222.5,370.5C 242.663,369.668 262.996,369.168 283.5,369C 282.833,368.333 282.167,367.667 281.5,367C 261.662,366.832 241.996,366.332 222.5,365.5C 245.836,365.667 269.169,365.5 292.5,365C 304.035,353.298 315.702,341.798 327.5,330.5 Z"/></g>
<g><path style="opacity:1" fill="#e44b20" d="M 222.5,365.5 C 241.996,366.332 261.662,366.832 281.5,367C 282.167,367.667 282.833,368.333 283.5,369C 262.996,369.168 242.663,369.668 222.5,370.5C 219.046,375.323 215.213,375.656 211,371.5C 210.447,360.874 214.28,358.874 222.5,365.5 Z"/></g>
<g><path style="opacity:1" fill="#fde4df" d="M 214.5,366.5 C 219.833,367.5 219.833,368.5 214.5,369.5C 214.5,368.5 214.5,367.5 214.5,366.5 Z"/></g>
<g><path style="opacity:1" fill="#fad3d0" d="M 160.5,374.5 C 163.861,375.203 164.194,376.537 161.5,378.5C 159.358,377.563 159.024,376.23 160.5,374.5 Z"/></g>
<g><path style="opacity:1" fill="#f5c9c7" d="M 116.5,379.5 C 129.5,378.167 142.5,378.167 155.5,379.5C 142.989,379.171 130.655,379.505 118.5,380.5C 117.833,380.167 117.167,379.833 116.5,379.5 Z"/></g>
<g><path style="opacity:1" fill="#de3529" d="M 118.5,381.5 C 123.339,385.501 128.339,389.334 133.5,393C 163.5,393.667 193.5,393.667 223.5,393C 224.167,391.667 225.167,390.667 226.5,390C 234.999,388.997 237.333,392.33 233.5,400C 229.914,402.381 226.914,401.881 224.5,398.5C 196.839,397.333 169.173,397.167 141.5,398C 151.171,404.335 161.504,409.335 172.5,413C 194.097,416.951 215.763,417.451 237.5,414.5C 239.762,415.345 240.429,416.678 239.5,418.5C 205.845,423.496 173.178,420.163 141.5,408.5C 142.239,408.631 142.906,408.464 143.5,408C 134.28,399.302 125.947,390.468 118.5,381.5 Z"/></g>
<g><path style="opacity:1" fill="#e65123" d="M 310.5,383.5 C 311.5,384.167 312.5,384.833 313.5,385.5C 303.202,394.661 291.536,401.827 278.5,407C 265.79,411.926 252.79,415.759 239.5,418.5C 240.429,416.678 239.762,415.345 237.5,414.5C 260.312,410.115 281.645,401.782 301.5,389.5C 302.289,389.217 302.956,388.717 303.5,388C 292.992,387.175 282.658,387.341 272.5,388.5C 272.047,389.458 271.381,390.292 270.5,391C 263.017,392.689 260.183,389.856 262,382.5C 265.506,378.569 269.006,378.569 272.5,382.5C 285.149,383.499 297.816,383.832 310.5,383.5 Z"/></g>
<g><path style="opacity:1" fill="#f2a48a" d="M 272.5,388.5 C 282.658,387.341 292.992,387.175 303.5,388C 302.956,388.717 302.289,389.217 301.5,389.5C 292.014,388.506 282.348,388.173 272.5,388.5 Z"/></g>
<g><path style="opacity:1" fill="#fef3f0" d="M 265.5,384.5 C 266.5,384.5 267.5,384.5 268.5,384.5C 267.754,388.31 266.754,388.31 265.5,384.5 Z"/></g>
<g><path style="opacity:1" fill="#fcdfda" d="M 228.5,393.5 C 229.995,393.415 230.995,394.081 231.5,395.5C 230.167,396.833 228.833,396.833 227.5,395.5C 227.863,394.817 228.196,394.15 228.5,393.5 Z"/></g>
</svg>
