<svg width="66" height="19" viewBox="0 0 66 19" fill="none" xmlns="http://www.w3.org/2000/svg">
<path d="M17.7031 12.9844C17.6823 13.2656 17.625 13.4792 17.5312 13.625C17.4479 13.7604 17.3542 13.8854 17.25 14C17.1562 14.1146 17.0573 14.2448 16.9531 14.3906C16.8594 14.5365 16.7865 14.7552 16.7344 15.0469C16.3906 15.1823 16.1406 15.3438 15.9844 15.5312C15.8281 15.7083 15.6927 15.875 15.5781 16.0312C15.474 16.1875 15.3438 16.3073 15.1875 16.3906C15.0417 16.474 14.7969 16.4896 14.4531 16.4375C14.401 16.375 14.3438 16.3177 14.2812 16.2656C14.2292 16.2135 14.1667 16.1615 14.0938 16.1094C14.0104 16.3281 13.901 16.474 13.7656 16.5469C13.6406 16.6198 13.5 16.6719 13.3438 16.7031C13.1875 16.724 13.026 16.7552 12.8594 16.7969C12.6927 16.8385 12.5312 16.9427 12.375 17.1094C11.9792 17.0573 11.6615 16.9688 11.4219 16.8438C11.1927 16.7188 11.0104 16.5833 10.875 16.4375C10.7396 16.2812 10.6302 16.1198 10.5469 15.9531C10.474 15.776 10.3958 15.6094 10.3125 15.4531C10.2292 15.2969 10.125 15.1562 10 15.0312C9.88542 14.8958 9.71354 14.7917 9.48438 14.7188C9.38021 14.6875 9.29167 14.6823 9.21875 14.7031C9.15625 14.724 9.09896 14.7604 9.04688 14.8125C8.99479 14.8646 8.94271 14.9271 8.89062 15C8.84896 15.0625 8.79688 15.1198 8.73438 15.1719L8.5625 15C8.46875 15.25 8.32812 15.4479 8.14062 15.5938C7.96354 15.7292 7.75521 15.8333 7.51562 15.9062C7.28646 15.9688 7.04167 16.0104 6.78125 16.0312C6.53125 16.0417 6.29167 16.0469 6.0625 16.0469C5.94792 16.2969 5.80729 16.4844 5.64062 16.6094C5.47396 16.7344 5.28646 16.8281 5.07812 16.8906C4.88021 16.9531 4.67188 17 4.45312 17.0312C4.23438 17.0625 4.01042 17.1094 3.78125 17.1719C3.6875 17.151 3.58333 17.1562 3.46875 17.1875C3.36458 17.2188 3.25521 17.25 3.14062 17.2812C3.03646 17.3229 2.92708 17.3542 2.8125 17.375C2.70833 17.3958 2.61979 17.3854 2.54688 17.3438C2.45312 17.2917 2.40625 17.2292 2.40625 17.1562C2.40625 17.0833 2.38021 17.0156 2.32812 16.9531H2.29688C2.07812 16.9323 1.90104 16.8646 1.76562 16.75C1.63021 16.625 1.51562 16.4792 1.42188 16.3125C1.31771 16.1458 1.22917 15.9688 1.15625 15.7812C1.08333 15.5938 1.01042 15.4219 0.9375 15.2656C0.9375 15.0365 0.927083 14.7865 0.90625 14.5156C0.875 14.2344 0.869792 13.9583 0.890625 13.6875C0.911458 13.4062 0.96875 13.1458 1.0625 12.9062C1.15625 12.6667 1.3125 12.474 1.53125 12.3281L1.57812 12.2969L1.40625 12.1562C1.54167 12.0417 1.625 11.9323 1.65625 11.8281C1.67708 11.7135 1.68229 11.5781 1.67188 11.4219C1.74479 11.3073 1.82812 11.2083 1.92188 11.125C2.00521 11.0312 2.09375 10.9427 2.1875 10.8594C2.44792 10.5885 2.68229 10.3073 2.89062 10.0156C3.09896 9.72396 3.20312 9.38021 3.20312 8.98438C3.20312 8.93229 3.19792 8.88542 3.1875 8.84375C3.1875 8.80208 3.1875 8.75521 3.1875 8.70312C3.33333 8.66146 3.46875 8.59375 3.59375 8.5C3.72917 8.39583 3.85938 8.29688 3.98438 8.20312C4.10938 8.09896 4.23958 8.01562 4.375 7.95312C4.51042 7.89062 4.65104 7.875 4.79688 7.90625C4.77604 7.84375 4.75521 7.78646 4.73438 7.73438C4.71354 7.68229 4.70312 7.625 4.70312 7.5625C4.70312 7.38542 4.76562 7.22917 4.89062 7.09375C5.02604 6.95833 5.14583 6.83854 5.25 6.73438C5.33333 6.65104 5.42708 6.55208 5.53125 6.4375C5.63542 6.3125 5.71354 6.22396 5.76562 6.17188L5.67188 6.07812C5.82812 6.06771 5.94271 6.02083 6.01562 5.9375C6.08854 5.84375 6.15625 5.75 6.21875 5.65625C6.29167 5.5625 6.36979 5.47917 6.45312 5.40625C6.53646 5.32292 6.66146 5.28125 6.82812 5.28125H6.875C6.95833 5.11458 7.08333 4.96875 7.25 4.84375C7.41667 4.70833 7.58854 4.57812 7.76562 4.45312C7.95312 4.32812 8.13542 4.19792 8.3125 4.0625C8.48958 3.92708 8.625 3.76042 8.71875 3.5625C8.875 3.51042 9.01042 3.44271 9.125 3.35938C9.23958 3.26562 9.34896 3.18229 9.45312 3.10938C9.56771 3.02604 9.6875 2.95312 9.8125 2.89062C9.94792 2.82812 10.1094 2.79167 10.2969 2.78125C10.349 2.72917 10.4167 2.66146 10.5 2.57812C10.5833 2.49479 10.651 2.45312 10.7031 2.45312C10.7552 2.45312 10.7865 2.47396 10.7969 2.51562C10.8177 2.54688 10.8385 2.57812 10.8594 2.60938C10.9219 2.55729 11.0052 2.54167 11.1094 2.5625C11.224 2.57292 11.3385 2.60417 11.4531 2.65625C11.5677 2.70833 11.6771 2.76562 11.7812 2.82812C11.8854 2.89062 11.9688 2.9375 12.0312 2.96875C12.2917 3.61458 12.3229 4.27604 12.125 4.95312C12.0729 4.95312 12.0156 4.95833 11.9531 4.96875C11.8906 4.96875 11.8281 4.96875 11.7656 4.96875C11.7656 4.92708 11.7917 4.88021 11.8438 4.82812C11.8958 4.77604 11.9323 4.73958 11.9531 4.71875C11.8281 4.65625 11.7344 4.57292 11.6719 4.46875C11.6094 4.35417 11.5521 4.24479 11.5 4.14062C11.4479 4.02604 11.3802 3.92708 11.2969 3.84375C11.224 3.75 11.1042 3.69271 10.9375 3.67188C10.7083 3.64062 10.4948 3.68229 10.2969 3.79688C10.099 3.90104 9.91667 4.02083 9.75 4.15625C9.58333 4.28125 9.42708 4.40104 9.28125 4.51562C9.13542 4.61979 8.99479 4.66146 8.85938 4.64062C8.79688 4.76562 8.72396 4.86979 8.64062 4.95312C8.56771 5.03646 8.49479 5.11979 8.42188 5.20312C8.35938 5.28646 8.30729 5.38021 8.26562 5.48438C8.23438 5.58854 8.23958 5.72396 8.28125 5.89062C7.90625 6.24479 7.52083 6.58854 7.125 6.92188C6.73958 7.24479 6.38021 7.60938 6.04688 8.01562L5.875 7.84375C5.875 7.91667 5.84896 7.98438 5.79688 8.04688C5.75521 8.09896 5.71354 8.15625 5.67188 8.21875C5.63021 8.28125 5.59375 8.35417 5.5625 8.4375C5.54167 8.51042 5.54688 8.59375 5.57812 8.6875C5.49479 8.73958 5.42188 8.80208 5.35938 8.875C5.30729 8.9375 5.25521 9.01042 5.20312 9.09375C5.14062 9.1875 5.07292 9.27604 5 9.35938C4.9375 9.43229 4.85417 9.50521 4.75 9.57812L4.73438 9.59375C4.74479 9.69792 4.75 9.79688 4.75 9.89062C4.75 9.98438 4.75 10.0885 4.75 10.2031C4.63542 10.3802 4.49479 10.5469 4.32812 10.7031C4.16146 10.8594 4 11.0208 3.84375 11.1875C3.6875 11.3438 3.54688 11.5156 3.42188 11.7031C3.30729 11.8906 3.23958 12.099 3.21875 12.3281C3.04167 12.3906 2.91667 12.4948 2.84375 12.6406C2.77083 12.7865 2.71354 12.9375 2.67188 13.0938C2.63021 13.25 2.59375 13.401 2.5625 13.5469C2.53125 13.6927 2.46875 13.8021 2.375 13.875L2.51562 14.0156C2.24479 14.1719 2.04688 14.3646 1.92188 14.5938C1.79688 14.8229 1.77604 15.0938 1.85938 15.4062L1.875 15.4219V15.4375C2.17708 15.6979 2.48438 15.8385 2.79688 15.8594C3.10938 15.8802 3.44792 15.8646 3.8125 15.8125C3.97917 15.7917 4.13542 15.7812 4.28125 15.7812C4.4375 15.7708 4.58854 15.7656 4.73438 15.7656H4.76562C4.91146 15.6198 5.06771 15.5312 5.23438 15.5C5.40104 15.4583 5.58333 15.4375 5.78125 15.4375C5.94792 15.4375 6.10938 15.4271 6.26562 15.4062C6.42188 15.3854 6.55729 15.3073 6.67188 15.1719C6.71354 15.1302 6.74479 15.0885 6.76562 15.0469C6.78646 15.0052 6.8125 14.9635 6.84375 14.9219C6.86458 14.901 6.88542 14.8802 6.90625 14.8594C6.92708 14.8385 6.94792 14.8177 6.96875 14.7969C7.19792 14.849 7.41146 14.8229 7.60938 14.7188C7.80729 14.6042 7.99479 14.4688 8.17188 14.3125C8.35938 14.1562 8.54167 14 8.71875 13.8438C8.90625 13.6771 9.09375 13.5625 9.28125 13.5C9.52083 13.2604 9.67708 13 9.75 12.7188C9.83333 12.4375 9.88542 12.1406 9.90625 11.8281C9.91667 11.6719 9.92708 11.526 9.9375 11.3906C9.95833 11.2552 9.98438 11.1302 10.0156 11.0156C10.0573 10.8906 10.1146 10.776 10.1875 10.6719C10.2604 10.5573 10.3646 10.4427 10.5 10.3281L10.5312 10.2969C10.5104 10.2135 10.4896 10.1406 10.4688 10.0781C10.4479 10.0156 10.4375 9.9375 10.4375 9.84375C10.4375 9.64583 10.474 9.45833 10.5469 9.28125C10.6198 9.10417 10.6979 8.92708 10.7812 8.75C10.875 8.5625 10.9583 8.36458 11.0312 8.15625C11.1042 7.94792 11.1406 7.71354 11.1406 7.45312C11.2865 7.20312 11.4479 6.94792 11.625 6.6875C11.8021 6.42708 11.9948 6.17708 12.2031 5.9375C12.4115 5.69792 12.6354 5.48438 12.875 5.29688C13.1146 5.10938 13.375 4.96354 13.6562 4.85938C13.7917 4.86979 13.9271 4.88542 14.0625 4.90625C14.2083 4.91667 14.3438 4.93229 14.4688 4.95312C14.4062 5.09896 14.375 5.27083 14.375 5.46875C14.375 5.65625 14.3646 5.84375 14.3438 6.03125C14.3333 6.20833 14.2917 6.36979 14.2188 6.51562C14.1458 6.66146 14.0104 6.76562 13.8125 6.82812C13.8333 6.85938 13.8438 6.92188 13.8438 7.01562C13.8542 7.09896 13.8594 7.16146 13.8594 7.20312C13.8594 7.51562 13.7917 7.8125 13.6562 8.09375C13.5208 8.375 13.3646 8.65625 13.1875 8.9375C13.0208 9.20833 12.8542 9.48438 12.6875 9.76562C12.5312 10.0469 12.4219 10.3333 12.3594 10.625C12.3281 10.7604 12.2552 10.8854 12.1406 11C12.0365 11.1146 11.9271 11.2292 11.8125 11.3438C11.7083 11.4583 11.6198 11.5833 11.5469 11.7188C11.4844 11.8438 11.4792 11.9844 11.5312 12.1406C11.4479 12.276 11.349 12.3906 11.2344 12.4844C11.1302 12.5677 11.0365 12.6562 10.9531 12.75C10.8698 12.8333 10.8125 12.9375 10.7812 13.0625C10.75 13.1875 10.7708 13.349 10.8438 13.5469H10.8594V13.5625C10.974 13.7396 11.0625 13.9219 11.125 14.1094C11.1875 14.2969 11.2552 14.4792 11.3281 14.6562C11.4115 14.8333 11.5156 14.9948 11.6406 15.1406C11.776 15.2865 11.9635 15.3958 12.2031 15.4688C12.224 15.3542 12.2708 15.2969 12.3438 15.2969C12.4167 15.2865 12.4948 15.2812 12.5781 15.2812C12.6302 15.3333 12.6823 15.3854 12.7344 15.4375C12.7865 15.4792 12.8385 15.526 12.8906 15.5781C13.349 15.5781 13.7135 15.5625 13.9844 15.5312C14.2552 15.5 14.4844 15.4427 14.6719 15.3594C14.8698 15.276 15.0625 15.1562 15.25 15C15.4375 14.8333 15.6823 14.6198 15.9844 14.3594C16.2656 14.1198 16.5469 13.8854 16.8281 13.6562C17.1094 13.4167 17.401 13.1927 17.7031 12.9844ZM12.5156 8.53125C12.4635 8.41667 12.375 8.35938 12.25 8.35938C12.125 8.35938 12.0104 8.36458 11.9062 8.375C11.9896 8.45833 12.0625 8.55208 12.125 8.65625C12.1979 8.76042 12.2656 8.85938 12.3281 8.95312C12.3802 8.90104 12.4323 8.83854 12.4844 8.76562C12.5469 8.69271 12.5573 8.61458 12.5156 8.53125ZM27.375 13.9062C27.1354 14.0208 26.974 14.1615 26.8906 14.3281C26.8073 14.4948 26.7396 14.6667 26.6875 14.8438C26.6458 15.0208 26.5885 15.1927 26.5156 15.3594C26.4531 15.5156 26.3125 15.6458 26.0938 15.75C26.0417 15.9375 25.9375 16.0677 25.7812 16.1406C25.6354 16.2135 25.4792 16.2812 25.3125 16.3438C25.1458 16.3958 24.9948 16.4688 24.8594 16.5625C24.7344 16.6562 24.6719 16.8177 24.6719 17.0469C24.4635 17.1615 24.2344 17.2656 23.9844 17.3594C23.7448 17.4531 23.4896 17.5208 23.2188 17.5625C22.9583 17.6146 22.6979 17.6354 22.4375 17.625C22.1771 17.6146 21.9323 17.5625 21.7031 17.4688C21.5469 17.3958 21.3958 17.3021 21.25 17.1875C21.1979 17.1458 21.1458 17.1094 21.0938 17.0781C21.0521 17.0573 21.0052 17.0208 20.9531 16.9688C20.8281 16.8438 20.724 16.6979 20.6406 16.5312C20.5573 16.3646 20.4896 16.1875 20.4375 16C20.3854 15.8125 20.3438 15.625 20.3125 15.4375C20.2812 15.25 20.2552 15.0729 20.2344 14.9062L20.8125 13.3438C20.5104 13.1042 20.2656 12.8281 20.0781 12.5156C19.8906 12.1927 19.6615 11.8958 19.3906 11.625C19.3385 11.6979 19.2708 11.7604 19.1875 11.8125C19.1042 11.8646 19.0729 11.9479 19.0938 12.0625L19.25 12.2031C18.9062 12.5781 18.5573 13.0052 18.2031 13.4844C17.8594 13.9531 17.5885 14.4271 17.3906 14.9062C17.1615 14.8958 17 14.9531 16.9062 15.0781C16.8125 15.1927 16.7344 15.3281 16.6719 15.4844C16.6094 15.6302 16.5312 15.7656 16.4375 15.8906C16.3438 16.0156 16.1875 16.0677 15.9688 16.0469C15.9167 16.1615 15.8646 16.2865 15.8125 16.4219C15.7604 16.5469 15.6979 16.6667 15.625 16.7812C15.5521 16.8958 15.4635 16.9896 15.3594 17.0625C15.2552 17.1458 15.125 17.1875 14.9688 17.1875C14.8854 17.1042 14.8385 17.0156 14.8281 16.9219C14.8177 16.8281 14.8281 16.7344 14.8594 16.6406C14.8906 16.5365 14.9323 16.4375 14.9844 16.3438C15.0365 16.2396 15.0729 16.1406 15.0938 16.0469C15.1771 15.7448 15.3281 15.474 15.5469 15.2344C15.7656 14.9844 15.9844 14.7396 16.2031 14.5C16.4219 14.25 16.6094 13.9896 16.7656 13.7188C16.9219 13.4479 16.9844 13.1302 16.9531 12.7656C17.0885 12.7552 17.224 12.7292 17.3594 12.6875C17.5052 12.6354 17.6354 12.5729 17.75 12.5C17.875 12.4167 17.9688 12.3177 18.0312 12.2031C18.1042 12.0781 18.1302 11.9323 18.1094 11.7656C18.026 11.724 17.9792 11.6667 17.9688 11.5938C17.9583 11.5104 17.9583 11.4271 17.9688 11.3438C18.1979 11.2708 18.3802 11.1458 18.5156 10.9688C18.6615 10.7812 18.7917 10.5833 18.9062 10.375C19.0208 10.1667 19.1302 9.95833 19.2344 9.75C19.349 9.53125 19.4948 9.34375 19.6719 9.1875C19.8177 9.27083 19.9635 9.34375 20.1094 9.40625C20.2552 9.45833 20.3958 9.53125 20.5312 9.625C20.4375 9.75 20.3802 9.86979 20.3594 9.98438C20.3385 10.099 20.3281 10.2188 20.3281 10.3438C20.3281 10.4583 20.3281 10.5729 20.3281 10.6875C20.3281 10.8021 20.2969 10.9219 20.2344 11.0469C20.401 11.1927 20.5417 11.3646 20.6562 11.5625C20.7708 11.7604 20.9167 11.9271 21.0938 12.0625C21.2188 11.9688 21.3594 11.9219 21.5156 11.9219C21.6719 11.9115 21.8281 11.9115 21.9844 11.9219C22.151 11.9219 22.3073 11.9115 22.4531 11.8906C22.599 11.8594 22.7188 11.7708 22.8125 11.625C22.8542 11.6667 22.9167 11.6875 23 11.6875C23.0833 11.6875 23.1667 11.6875 23.25 11.6875C23.3333 11.6875 23.4062 11.7031 23.4688 11.7344C23.5312 11.7552 23.5677 11.8021 23.5781 11.875C23.5885 11.9583 23.5833 12.0156 23.5625 12.0469C23.5521 12.0781 23.5365 12.1302 23.5156 12.2031C23.4948 12.2865 23.4896 12.3281 23.5 12.3281C23.5104 12.3281 23.5 12.3646 23.4688 12.4375C23.4167 12.5729 23.3281 12.6875 23.2031 12.7812C23.0885 12.875 22.9688 12.9688 22.8438 13.0625C22.7292 13.1458 22.6198 13.2448 22.5156 13.3594C22.4219 13.4635 22.375 13.599 22.375 13.7656C22.1458 13.849 21.9844 13.974 21.8906 14.1406C21.7969 14.2969 21.7344 14.4792 21.7031 14.6875C21.6719 14.8854 21.651 15.0938 21.6406 15.3125C21.6302 15.5208 21.5938 15.7135 21.5312 15.8906L21.6719 16.0469L21.7969 15.8906C21.9427 16.099 22.1146 16.2292 22.3125 16.2812C22.5208 16.3333 22.7344 16.349 22.9531 16.3281C23.0573 16.1719 23.1771 16.0469 23.3125 15.9531C23.4583 15.8594 23.6094 15.7812 23.7656 15.7188C23.9323 15.6562 24.099 15.599 24.2656 15.5469C24.4427 15.4948 24.6094 15.4323 24.7656 15.3594C24.8906 15.2969 24.9948 15.2292 25.0781 15.1562C25.1719 15.0833 25.2708 15 25.375 14.9062C25.6875 14.6146 25.9948 14.3281 26.2969 14.0469C26.6094 13.7656 26.9219 13.4792 27.2344 13.1875C27.2969 13.1875 27.3385 13.2188 27.3594 13.2812C27.3802 13.3438 27.3906 13.4167 27.3906 13.5C27.3906 13.5729 27.3854 13.651 27.375 13.7344C27.375 13.8073 27.375 13.8646 27.375 13.9062ZM37.7031 5.70312C37.5573 5.85938 37.3958 5.94271 37.2188 5.95312C37.0417 5.95312 36.8646 5.9375 36.6875 5.90625C36.5208 5.875 36.3542 5.86458 36.1875 5.875C36.0312 5.875 35.8958 5.95833 35.7812 6.125C35.6146 6.08333 35.4427 6.07812 35.2656 6.10938C35.0885 6.13021 34.9062 6.16667 34.7188 6.21875C34.5312 6.26042 34.3438 6.30208 34.1562 6.34375C33.9688 6.38542 33.7812 6.40104 33.5938 6.39062L33.3281 6.125C33.2552 6.23958 33.151 6.3125 33.0156 6.34375C32.8906 6.36458 32.7656 6.33333 32.6406 6.25C32.4219 6.39583 32.2031 6.46354 31.9844 6.45312C31.7656 6.44271 31.5521 6.4375 31.3438 6.4375C31.1354 6.42708 30.9375 6.46875 30.75 6.5625C30.5729 6.64583 30.4219 6.85938 30.2969 7.20312C30.2031 7.44271 30.1146 7.6875 30.0312 7.9375C29.9479 8.17708 29.8646 8.41667 29.7812 8.65625C29.5521 9.28125 29.3177 9.90104 29.0781 10.5156C28.849 11.1198 28.5885 11.7188 28.2969 12.3125C28.276 12.7812 28.2865 13.2552 28.3281 13.7344C28.3698 14.2135 28.4167 14.6875 28.4688 15.1562C28.4271 15.2812 28.4115 15.4115 28.4219 15.5469C28.4427 15.6823 28.4792 15.8177 28.5312 15.9531C28.5833 16.0885 28.6458 16.2188 28.7188 16.3438C28.7917 16.4583 28.8698 16.5625 28.9531 16.6562L29.2344 16.3906L29.625 16.9375C29.7292 16.8021 29.849 16.6615 29.9844 16.5156C30.1302 16.3594 30.2812 16.2188 30.4375 16.0938C30.5938 15.9583 30.7552 15.849 30.9219 15.7656C31.099 15.6719 31.276 15.6094 31.4531 15.5781C31.526 15.5052 31.5938 15.4271 31.6562 15.3438C31.7188 15.2604 31.7865 15.1927 31.8594 15.1406C31.9323 15.0781 32.0104 15.0365 32.0938 15.0156C32.1875 14.9844 32.2969 14.9896 32.4219 15.0312C32.7552 14.8438 33.0521 14.6094 33.3125 14.3281C33.5729 14.0365 33.8333 13.75 34.0938 13.4688C34.3542 13.1771 34.625 12.9115 34.9062 12.6719C35.1979 12.4323 35.5365 12.2656 35.9219 12.1719C35.6719 12.776 35.3542 13.3646 34.9688 13.9375C34.5833 14.5 34.151 15.0052 33.6719 15.4531C33.5469 15.599 33.3906 15.7292 33.2031 15.8438C33.1198 15.8958 33.0312 15.9531 32.9375 16.0156C32.8438 16.0677 32.7552 16.1198 32.6719 16.1719C32.3906 16.3594 32.1198 16.5625 31.8594 16.7812C31.599 16.9896 31.349 17.224 31.1094 17.4844C31.0781 17.4219 31.0365 17.3802 30.9844 17.3594C30.9323 17.3385 30.8698 17.3281 30.7969 17.3281C30.7344 17.3281 30.6667 17.3333 30.5938 17.3438C30.5312 17.3542 30.474 17.3542 30.4219 17.3438C30.224 17.4896 29.9635 17.6042 29.6406 17.6875C29.3281 17.7812 29.0469 17.8021 28.7969 17.75C28.724 17.7292 28.625 17.6875 28.5 17.625C28.375 17.5729 28.2812 17.526 28.2188 17.4844C27.8125 17.2135 27.5052 16.8802 27.2969 16.4844C27.099 16.0781 26.9896 15.6354 26.9688 15.1562L26.8438 15.0312C26.9792 14.9062 27.0625 14.7812 27.0938 14.6562C27.1354 14.5312 27.1458 14.4062 27.125 14.2812C27.1146 14.1458 27.0885 14.0104 27.0469 13.875C27.0156 13.7292 26.9948 13.5833 26.9844 13.4375C26.974 13.3438 26.974 13.2656 26.9844 13.2031C27.0052 13.1406 27.026 13.0677 27.0469 12.9844C27.1302 12.651 27.2083 12.3281 27.2812 12.0156C27.3542 11.6927 27.4323 11.3698 27.5156 11.0469C27.724 10.2552 27.9635 9.47396 28.2344 8.70312C28.5156 7.92188 28.8073 7.15104 29.1094 6.39062C28.9427 6.32812 28.776 6.29167 28.6094 6.28125C28.4427 6.26042 28.2708 6.25 28.0938 6.25C27.9271 6.25 27.7552 6.24479 27.5781 6.23438C27.4115 6.22396 27.2448 6.1875 27.0781 6.125C27.0052 6.09375 26.9688 6.07812 26.9688 6.07812C26.9688 6.06771 26.9271 6.0625 26.8438 6.0625C26.7917 6.0625 26.7188 6.07292 26.625 6.09375C26.5312 6.10417 26.4375 6.10938 26.3438 6.10938C26.25 6.10938 26.1667 6.09896 26.0938 6.07812C26.0104 6.05729 25.9635 6.01042 25.9531 5.9375V5.78125C25.9635 5.61458 26 5.50521 26.0625 5.45312C26.125 5.39062 26.2031 5.35417 26.2969 5.34375C26.3906 5.32292 26.4948 5.3125 26.6094 5.3125C26.724 5.30208 26.8333 5.26562 26.9375 5.20312C27.2292 5.26562 27.5052 5.3125 27.7656 5.34375C28.026 5.36458 28.276 5.35938 28.5156 5.32812C28.7656 5.29688 29.0052 5.22917 29.2344 5.125C29.474 5.02083 29.7083 4.86458 29.9375 4.65625C30.1042 4.33333 30.2292 3.98958 30.3125 3.625C30.3958 3.25 30.4896 2.88542 30.5938 2.53125C30.7083 2.16667 30.8542 1.83333 31.0312 1.53125C31.2083 1.21875 31.4792 0.958333 31.8438 0.75C32.0104 0.729167 32.1562 0.75 32.2812 0.8125C32.4062 0.875 32.5312 0.942708 32.6562 1.01562C32.6042 1.16146 32.5625 1.3125 32.5312 1.46875C32.5 1.625 32.4635 1.78125 32.4219 1.9375C32.3906 2.09375 32.349 2.24479 32.2969 2.39062C32.2448 2.53646 32.1667 2.67188 32.0625 2.79688C32.1979 2.84896 32.276 2.91146 32.2969 2.98438C32.3177 3.05729 32.3073 3.13542 32.2656 3.21875C32.224 3.30208 32.1719 3.39062 32.1094 3.48438C32.0469 3.57812 32.0104 3.66146 32 3.73438C31.8854 3.74479 31.7865 3.81771 31.7031 3.95312C31.6302 4.08854 31.5521 4.19271 31.4688 4.26562C31.3854 4.44271 31.401 4.59375 31.5156 4.71875C31.6302 4.84375 31.7344 4.96354 31.8281 5.07812C31.9219 5.10938 32.0156 5.11458 32.1094 5.09375C32.2031 5.0625 32.2865 5.03125 32.3594 5C32.4427 4.96875 32.5208 4.95312 32.5938 4.95312C32.6667 4.95312 32.7344 4.99479 32.7969 5.07812C32.901 4.96354 33.0052 4.91667 33.1094 4.9375C33.2135 4.94792 33.3177 4.97396 33.4219 5.01562C33.526 5.04688 33.6302 5.0625 33.7344 5.0625C33.8385 5.05208 33.9375 4.96875 34.0312 4.8125C34.1562 4.75 34.2708 4.73438 34.375 4.76562C34.4896 4.79688 34.5938 4.83854 34.6875 4.89062C34.7812 4.93229 34.8698 4.96875 34.9531 5C35.0469 5.02083 35.1406 5 35.2344 4.9375C35.3906 4.95833 35.5625 4.96354 35.75 4.95312C35.9479 4.94271 36.1406 4.92188 36.3281 4.89062C36.526 4.85938 36.7188 4.82292 36.9062 4.78125C37.1042 4.72917 37.2812 4.6875 37.4375 4.65625C37.5938 4.75 37.6875 4.83333 37.7188 4.90625C37.75 4.97917 37.7552 5.05208 37.7344 5.125C37.724 5.19792 37.7031 5.28125 37.6719 5.375C37.651 5.45833 37.6615 5.56771 37.7031 5.70312ZM43.9531 15.1406C43.7344 15.6094 43.526 15.9792 43.3281 16.25C43.1302 16.5208 42.9062 16.75 42.6562 16.9375C42.4167 17.1146 42.125 17.2812 41.7812 17.4375C41.4375 17.5938 41.0052 17.7917 40.4844 18.0312C40.276 17.9792 40.0729 17.9635 39.875 17.9844C39.6771 18.0156 39.4844 18.0365 39.2969 18.0469C39.1198 18.0573 38.9479 18.0365 38.7812 17.9844C38.6146 17.9427 38.4635 17.8177 38.3281 17.6094H38.0938C38.1042 17.474 38.0885 17.3281 38.0469 17.1719C38.0156 17.026 37.9167 16.9427 37.75 16.9219C37.8542 16.8073 37.9219 16.6823 37.9531 16.5469C37.9844 16.401 38.0052 16.2552 38.0156 16.1094C38.0365 15.9635 38.0625 15.8229 38.0938 15.6875C38.125 15.5521 38.2031 15.4375 38.3281 15.3438C38.2031 15.1771 38.151 15.0104 38.1719 14.8438C38.2031 14.6667 38.2604 14.4948 38.3438 14.3281C38.4375 14.151 38.5312 13.9792 38.625 13.8125C38.7292 13.6354 38.7812 13.4583 38.7812 13.2812C38.6875 13.2188 38.599 13.1354 38.5156 13.0312C38.4427 12.9167 38.3385 12.8854 38.2031 12.9375C37.9219 13.2083 37.6406 13.4688 37.3594 13.7188C37.0781 13.9583 36.8021 14.2083 36.5312 14.4688C36.2708 14.7292 36.0208 15.0052 35.7812 15.2969C35.5521 15.5781 35.3385 15.8906 35.1406 16.2344C34.9635 16.2656 34.8281 16.349 34.7344 16.4844C34.6406 16.6198 34.5573 16.7656 34.4844 16.9219C34.4115 17.0677 34.3281 17.2083 34.2344 17.3438C34.151 17.4792 34.0312 17.5677 33.875 17.6094C33.8229 17.776 33.7708 17.9427 33.7188 18.1094C33.6562 18.2865 33.599 18.4583 33.5469 18.625C33.4844 18.5938 33.4062 18.5677 33.3125 18.5469C33.2083 18.526 33.1094 18.5 33.0156 18.4688C32.9219 18.4375 32.8385 18.3958 32.7656 18.3438C32.6927 18.3021 32.6458 18.2448 32.625 18.1719C32.6146 18.151 32.6146 18.1042 32.625 18.0312C32.625 17.9688 32.625 17.9271 32.625 17.9062C32.6458 17.6146 32.724 17.3385 32.8594 17.0781C32.9844 16.8281 33.1198 16.5833 33.2656 16.3438C33.4115 16.0938 33.5469 15.8438 33.6719 15.5938C33.7969 15.3438 33.8646 15.0677 33.875 14.7656C34.0312 14.7656 34.1302 14.7188 34.1719 14.625C34.224 14.5312 34.2604 14.4323 34.2812 14.3281C34.3125 14.224 34.349 14.1302 34.3906 14.0469C34.4323 13.9635 34.526 13.9323 34.6719 13.9531C34.5781 13.8281 34.5365 13.6927 34.5469 13.5469C34.5677 13.3906 34.6094 13.2396 34.6719 13.0938C34.7344 12.9375 34.8125 12.7917 34.9062 12.6562C35 12.5104 35.0781 12.3802 35.1406 12.2656C35.1302 12.1198 35.1406 11.974 35.1719 11.8281C35.2135 11.6823 35.2812 11.5521 35.375 11.4375C35.4688 11.3229 35.5521 11.2135 35.625 11.1094C35.6979 11.0052 35.7708 10.8958 35.8438 10.7812C35.8854 10.7292 35.9167 10.6719 35.9375 10.6094C35.9688 10.5469 36 10.4896 36.0312 10.4375C36.125 10.3021 36.1875 10.1615 36.2188 10.0156C36.25 9.85938 36.2812 9.70833 36.3125 9.5625C36.3542 9.40625 36.4062 9.27083 36.4688 9.15625C36.5417 9.03125 36.6667 8.93229 36.8438 8.85938C36.8438 8.74479 36.8594 8.64062 36.8906 8.54688C36.9323 8.44271 36.974 8.33854 37.0156 8.23438C37.0573 8.13021 37.0938 8.03125 37.125 7.9375C37.1667 7.83333 37.1875 7.72396 37.1875 7.60938C37.2188 7.55729 37.2656 7.50521 37.3281 7.45312C37.3906 7.40104 37.4479 7.34896 37.5 7.29688C37.5521 7.24479 37.5938 7.19271 37.625 7.14062C37.6562 7.07812 37.6615 7.00521 37.6406 6.92188C37.651 6.78646 37.6458 6.64583 37.625 6.5C37.6146 6.35417 37.6562 6.22917 37.75 6.125C37.7292 5.98958 37.7448 5.88021 37.7969 5.79688C37.8594 5.71354 37.9323 5.64062 38.0156 5.57812C38.099 5.51562 38.1875 5.45833 38.2812 5.40625C38.3854 5.34375 38.474 5.27604 38.5469 5.20312C38.4948 5.13021 38.4844 5.04688 38.5156 4.95312C38.5469 4.85938 38.5885 4.77083 38.6406 4.6875C38.7031 4.59375 38.7708 4.50521 38.8438 4.42188C38.9167 4.33854 38.9688 4.26562 39 4.20312C39.0625 4.07812 39.1146 3.95312 39.1562 3.82812C39.2083 3.70312 39.2656 3.58854 39.3281 3.48438C39.3906 3.36979 39.4635 3.26562 39.5469 3.17188C39.6406 3.07812 39.7604 3 39.9062 2.9375C39.8646 2.72917 39.875 2.56771 39.9375 2.45312C40.0104 2.33854 40.1042 2.23958 40.2188 2.15625C40.3438 2.07292 40.474 1.99479 40.6094 1.92188C40.7448 1.83854 40.8542 1.72396 40.9375 1.57812C41.0521 1.54688 41.1771 1.51562 41.3125 1.48438C41.4479 1.44271 41.5833 1.41667 41.7188 1.40625C41.8542 1.38542 41.9844 1.38542 42.1094 1.40625C42.2344 1.42708 42.349 1.48438 42.4531 1.57812C42.4948 1.61979 42.5208 1.64583 42.5312 1.65625C42.5417 1.66667 42.5469 1.67708 42.5469 1.6875C42.5469 1.6875 42.5469 1.69792 42.5469 1.71875C42.5573 1.72917 42.5833 1.75521 42.625 1.79688C42.6667 1.83854 42.7083 1.88021 42.75 1.92188C42.7917 1.95312 42.8333 1.99479 42.875 2.04688C42.8854 2.11979 42.8854 2.20312 42.875 2.29688C42.8646 2.38021 42.8594 2.46354 42.8594 2.54688C42.8594 2.63021 42.8698 2.70833 42.8906 2.78125C42.9219 2.85417 42.9896 2.90625 43.0938 2.9375C43.0104 3.23958 42.974 3.5625 42.9844 3.90625C42.9948 4.25 43 4.59896 43 4.95312C43 5.29688 42.974 5.63021 42.9219 5.95312C42.8698 6.27604 42.7344 6.5625 42.5156 6.8125L42.4062 7.60938C42.2708 7.61979 42.1771 7.66667 42.125 7.75C42.0729 7.82292 42.0365 7.91146 42.0156 8.01562C41.9948 8.11979 41.974 8.22917 41.9531 8.34375C41.9427 8.45833 41.9062 8.55208 41.8438 8.625C41.7604 8.72917 41.6771 8.84896 41.5938 8.98438C41.5104 9.11979 41.4219 9.24479 41.3281 9.35938C41.2344 9.47396 41.125 9.57292 41 9.65625C40.8854 9.72917 40.75 9.76562 40.5938 9.76562C40.5729 9.82812 40.5312 9.90104 40.4688 9.98438C40.4062 10.0677 40.3333 10.151 40.25 10.2344C40.1771 10.3073 40.099 10.375 40.0156 10.4375C39.9323 10.4896 39.8594 10.526 39.7969 10.5469C39.7135 10.5781 39.6354 10.6042 39.5625 10.625C39.5 10.6354 39.4271 10.6667 39.3438 10.7188C39.25 10.7708 39.1562 10.8385 39.0625 10.9219C38.9688 11.0052 38.8698 11.0781 38.7656 11.1406C38.6615 11.2031 38.5521 11.25 38.4375 11.2812C38.3229 11.3021 38.2083 11.2865 38.0938 11.2344C37.9583 11.401 37.8021 11.5052 37.625 11.5469C37.4583 11.5781 37.2917 11.6042 37.125 11.625C36.9688 11.6354 36.8177 11.6719 36.6719 11.7344C36.5365 11.7865 36.4323 11.9115 36.3594 12.1094C36.3385 12.1302 36.3177 12.1771 36.2969 12.25C36.2865 12.3125 36.2812 12.3542 36.2812 12.375C36.2812 12.4896 36.276 12.6302 36.2656 12.7969C36.2552 12.9635 36.2969 13.0885 36.3906 13.1719C36.7656 12.9948 37.1198 12.7865 37.4531 12.5469C37.7969 12.2969 38.1615 12.0885 38.5469 11.9219L38.6562 12.0469C38.6875 11.8177 38.7865 11.7031 38.9531 11.7031C39.1198 11.6927 39.2917 11.6927 39.4688 11.7031H39.5781C39.599 11.7031 39.6146 11.7031 39.625 11.7031C39.6458 11.6927 39.6667 11.6875 39.6875 11.6875C39.8854 11.6875 40.0156 11.7656 40.0781 11.9219C40.1406 12.0781 40.1979 12.2292 40.25 12.375C40.1354 12.5 40.0417 12.651 39.9688 12.8281C39.9062 12.9948 39.8438 13.1719 39.7812 13.3594C39.7292 13.5469 39.6667 13.7344 39.5938 13.9219C39.5312 14.099 39.4427 14.2656 39.3281 14.4219C39.4219 14.474 39.4635 14.5312 39.4531 14.5938C39.4427 14.6562 39.4219 14.7188 39.3906 14.7812C39.3698 14.8438 39.3646 14.9062 39.375 14.9688C39.3854 15.0208 39.4531 15.0625 39.5781 15.0938C39.474 15.1667 39.401 15.2552 39.3594 15.3594C39.3281 15.4531 39.2969 15.5573 39.2656 15.6719C39.2448 15.776 39.2188 15.8802 39.1875 15.9844C39.1562 16.0781 39.0938 16.1615 39 16.2344C39.0417 16.3281 39.0729 16.4219 39.0938 16.5156C39.125 16.599 39.1302 16.6979 39.1094 16.8125C39.2552 17 39.401 17.1042 39.5469 17.125C39.7031 17.1458 39.8542 17.1354 40 17.0938C40.1458 17.0521 40.2969 17.0104 40.4531 16.9688C40.6094 16.9271 40.7708 16.9375 40.9375 17C41.2292 16.8021 41.4323 16.6823 41.5469 16.6406C41.6615 16.599 41.75 16.5677 41.8125 16.5469C41.8854 16.526 41.9688 16.4792 42.0625 16.4062C42.1562 16.3333 42.3333 16.1719 42.5938 15.9219C42.8542 15.849 43.0833 15.7292 43.2812 15.5625C43.4896 15.3958 43.7135 15.2552 43.9531 15.1406ZM41.625 2.375C41.6354 2.5 41.6042 2.59896 41.5312 2.67188C41.4688 2.73438 41.3958 2.79688 41.3125 2.85938C41.2292 2.91146 41.1458 2.96875 41.0625 3.03125C40.9896 3.08333 40.9479 3.16667 40.9375 3.28125C40.8021 3.34375 40.7135 3.42708 40.6719 3.53125C40.6302 3.63542 40.5938 3.74479 40.5625 3.85938C40.5417 3.96354 40.5052 4.06771 40.4531 4.17188C40.401 4.27604 40.2969 4.35938 40.1406 4.42188L40.25 4.53125C39.9062 4.84375 39.6302 5.21354 39.4219 5.64062C39.224 6.06771 39.0469 6.49479 38.8906 6.92188C38.7448 7.07812 38.6406 7.25521 38.5781 7.45312C38.5156 7.64062 38.4531 7.83333 38.3906 8.03125C38.3385 8.21875 38.2656 8.40104 38.1719 8.57812C38.0885 8.74479 37.9479 8.875 37.75 8.96875C37.8542 9.10417 37.8906 9.22917 37.8594 9.34375C37.8385 9.45833 37.7865 9.56771 37.7031 9.67188C37.6198 9.77604 37.5312 9.88021 37.4375 9.98438C37.3542 10.0885 37.3073 10.2031 37.2969 10.3281C37.4948 10.3698 37.6875 10.3646 37.875 10.3125C38.0729 10.2604 38.2656 10.1875 38.4531 10.0938C38.6406 9.98958 38.8177 9.875 38.9844 9.75C39.151 9.625 39.3125 9.51562 39.4688 9.42188L39.5781 9.53125C40.0469 9.27083 40.4323 8.95833 40.7344 8.59375C41.0469 8.21875 41.3438 7.8125 41.625 7.375C41.5312 7.30208 41.4896 7.22396 41.5 7.14062C41.5208 7.08854 41.5469 7.02604 41.5781 6.95312C41.6094 6.88021 41.6354 6.81771 41.6562 6.76562C41.7604 6.45312 41.8385 6.16146 41.8906 5.89062C42.026 5.32812 42.1198 4.76562 42.1719 4.20312C42.2344 3.63021 42.276 3.05729 42.2969 2.48438L41.625 2.375ZM54.0938 16.2188C53.9688 16.2188 53.8698 16.224 53.7969 16.2344C53.7344 16.2344 53.6771 16.2396 53.625 16.25C53.5729 16.2604 53.5156 16.2812 53.4531 16.3125C53.3906 16.3438 53.3073 16.3906 53.2031 16.4531C53.1615 16.5677 53.1042 16.6562 53.0312 16.7188C52.9688 16.7708 52.8906 16.8177 52.7969 16.8594C52.7135 16.8906 52.625 16.9271 52.5312 16.9688C52.4375 17 52.349 17.0573 52.2656 17.1406C51.474 17.2656 50.776 17.0885 50.1719 16.6094C50.099 16.5573 50.0312 16.5 49.9688 16.4375C49.9167 16.375 49.8542 16.3177 49.7812 16.2656C49.7292 16.224 49.6979 16.2083 49.6875 16.2188C49.6875 16.2188 49.6667 16.1927 49.625 16.1406C49.5521 16.0365 49.5052 15.9115 49.4844 15.7656C49.474 15.6094 49.4531 15.4635 49.4219 15.3281C49.3906 15.1823 49.3281 15.0625 49.2344 14.9688C49.151 14.8646 49 14.8177 48.7812 14.8281C48.6771 15.0469 48.526 15.2708 48.3281 15.5C48.1406 15.7188 47.9271 15.9167 47.6875 16.0938C47.4479 16.2708 47.1927 16.4167 46.9219 16.5312C46.6615 16.6458 46.4115 16.7031 46.1719 16.7031C46.0885 16.9427 45.9427 17.1198 45.7344 17.2344C45.5365 17.3594 45.3229 17.4531 45.0938 17.5156C45.0729 17.526 45.0312 17.5365 44.9688 17.5469C44.9062 17.5677 44.8698 17.5781 44.8594 17.5781C44.7135 17.5885 44.599 17.5625 44.5156 17.5C44.4323 17.4375 44.3542 17.3698 44.2812 17.2969C44.2083 17.224 44.1302 17.1562 44.0469 17.0938C43.9635 17.0312 43.849 17 43.7031 17C43.5885 16.7292 43.474 16.4635 43.3594 16.2031C43.2448 15.9427 43.1615 15.6771 43.1094 15.4062C43.2031 15.3542 43.2552 15.2917 43.2656 15.2188C43.2656 15.1354 43.2656 15.0521 43.2656 14.9688C43.099 14.9167 43.0156 14.8542 43.0156 14.7812C43.0052 14.6979 43.0208 14.6146 43.0625 14.5312C43.0938 14.4479 43.1302 14.3698 43.1719 14.2969C43.2031 14.2135 43.1823 14.1458 43.1094 14.0938C43.1927 13.4583 43.375 12.8438 43.6562 12.25C43.9375 11.6562 44.3385 11.1615 44.8594 10.7656C44.7969 10.5677 44.8125 10.4167 44.9062 10.3125C45.0104 10.2083 45.1302 10.151 45.2656 10.1406C45.4115 10.1302 45.5469 10.1667 45.6719 10.25C45.8073 10.3229 45.875 10.4427 45.875 10.6094C45.8854 10.6823 45.8802 10.7552 45.8594 10.8281C45.8385 10.901 45.8177 10.9688 45.7969 11.0312C45.7344 11.3438 45.6406 11.6458 45.5156 11.9375C45.3906 12.2292 45.2552 12.5156 45.1094 12.7969C44.9635 13.0781 44.8125 13.3594 44.6562 13.6406C44.5104 13.9219 44.3854 14.2135 44.2812 14.5156C44.1562 14.599 44.1146 14.6875 44.1562 14.7812C44.1979 14.875 44.25 14.9688 44.3125 15.0625C44.3854 15.1458 44.4219 15.2292 44.4219 15.3125C44.4323 15.3958 44.3385 15.474 44.1406 15.5469C44.0781 15.6927 44.0938 15.8229 44.1875 15.9375C44.2812 16.0417 44.3594 16.151 44.4219 16.2656C44.5052 16.276 44.5833 16.276 44.6562 16.2656C44.7396 16.2552 44.8073 16.2083 44.8594 16.125C44.9844 16.2083 45.0938 16.224 45.1875 16.1719C45.2917 16.1198 45.3958 16.0573 45.5 15.9844C45.6146 15.901 45.7344 15.8333 45.8594 15.7812C45.9948 15.7292 46.1458 15.7448 46.3125 15.8281C46.3854 15.7552 46.4427 15.6667 46.4844 15.5625C46.5365 15.4583 46.5885 15.3594 46.6406 15.2656C46.6927 15.1719 46.7552 15.0938 46.8281 15.0312C46.9115 14.9688 47.026 14.9479 47.1719 14.9688C47.3177 14.7083 47.5104 14.4948 47.75 14.3281C47.9896 14.151 48.2292 13.9844 48.4688 13.8281C48.7188 13.6719 48.9375 13.5052 49.125 13.3281C49.3229 13.151 49.4479 12.9219 49.5 12.6406C49.6979 12.3281 49.8958 11.9792 50.0938 11.5938C50.3021 11.1979 50.5417 10.8698 50.8125 10.6094C50.8438 10.526 50.8958 10.4635 50.9688 10.4219C51.0417 10.3698 51.1198 10.3385 51.2031 10.3281C51.2865 10.3073 51.3698 10.3125 51.4531 10.3438C51.5365 10.3646 51.6094 10.4062 51.6719 10.4688C51.6927 10.6562 51.6667 10.8281 51.5938 10.9844C51.5312 11.1406 51.4583 11.2969 51.375 11.4531C51.3021 11.599 51.2448 11.7552 51.2031 11.9219C51.1615 12.0885 51.1771 12.2812 51.25 12.5C51.1042 12.5833 50.9583 12.6562 50.8125 12.7188C50.6771 12.7812 50.5469 12.849 50.4219 12.9219C50.3073 12.9948 50.2031 13.0885 50.1094 13.2031C50.026 13.3177 49.9688 13.4688 49.9375 13.6562C50.2188 13.7604 50.3854 13.8906 50.4375 14.0469C50.4896 14.2031 50.5156 14.375 50.5156 14.5625C50.5156 14.7396 50.526 14.9271 50.5469 15.125C50.5781 15.3125 50.7135 15.5 50.9531 15.6875C50.9948 15.7188 51.0208 15.7448 51.0312 15.7656C51.0521 15.776 51.0885 15.7917 51.1406 15.8125C51.2448 15.8438 51.3385 15.8438 51.4219 15.8125C51.5052 15.7708 51.5833 15.7344 51.6562 15.7031C51.7396 15.6719 51.8229 15.6615 51.9062 15.6719C52 15.6719 52.1042 15.7344 52.2188 15.8594C52.375 15.6615 52.5208 15.6615 52.6562 15.8594C52.7812 15.6302 52.8958 15.5 53 15.4688C53.1042 15.4375 53.2031 15.4271 53.2969 15.4375C53.401 15.4479 53.5052 15.4375 53.6094 15.4062C53.7135 15.375 53.8281 15.2448 53.9531 15.0156L54.0938 15.1562C54.1562 14.9896 54.2292 14.9115 54.3125 14.9219C54.4062 14.9219 54.4948 14.9375 54.5781 14.9688C54.6615 14.9896 54.7344 14.9896 54.7969 14.9688C54.8594 14.9375 54.8906 14.8125 54.8906 14.5938C54.9844 14.5938 55.0625 14.5729 55.125 14.5312C55.1979 14.4896 55.2656 14.4427 55.3281 14.3906C55.401 14.3385 55.4792 14.2969 55.5625 14.2656C55.6458 14.224 55.7448 14.2031 55.8594 14.2031L55.4531 15.1875L54.0938 16.2188ZM65.8594 13.9062C65.6198 14.0208 65.4583 14.1615 65.375 14.3281C65.2917 14.4948 65.224 14.6667 65.1719 14.8438C65.1302 15.0208 65.0729 15.1927 65 15.3594C64.9375 15.5156 64.7969 15.6458 64.5781 15.75C64.526 15.9375 64.4219 16.0677 64.2656 16.1406C64.1198 16.2135 63.9635 16.2812 63.7969 16.3438C63.6302 16.3958 63.4792 16.4688 63.3438 16.5625C63.2188 16.6562 63.1562 16.8177 63.1562 17.0469C62.9479 17.1615 62.7188 17.2656 62.4688 17.3594C62.2292 17.4531 61.974 17.5208 61.7031 17.5625C61.4427 17.6146 61.1823 17.6354 60.9219 17.625C60.6615 17.6146 60.4167 17.5625 60.1875 17.4688C60.0312 17.3958 59.8802 17.3021 59.7344 17.1875C59.6823 17.1458 59.6302 17.1094 59.5781 17.0781C59.5365 17.0573 59.4896 17.0208 59.4375 16.9688C59.3125 16.8438 59.2083 16.6979 59.125 16.5312C59.0417 16.3646 58.974 16.1875 58.9219 16C58.8698 15.8125 58.8281 15.625 58.7969 15.4375C58.7656 15.25 58.7396 15.0729 58.7188 14.9062L59.2969 13.3438C58.9948 13.1042 58.75 12.8281 58.5625 12.5156C58.375 12.1927 58.1458 11.8958 57.875 11.625C57.8229 11.6979 57.7552 11.7604 57.6719 11.8125C57.5885 11.8646 57.5573 11.9479 57.5781 12.0625L57.7344 12.2031C57.3906 12.5781 57.0417 13.0052 56.6875 13.4844C56.3438 13.9531 56.0729 14.4271 55.875 14.9062C55.6458 14.8958 55.4844 14.9531 55.3906 15.0781C55.2969 15.1927 55.2188 15.3281 55.1562 15.4844C55.0938 15.6302 55.0156 15.7656 54.9219 15.8906C54.8281 16.0156 54.6719 16.0677 54.4531 16.0469C54.401 16.1615 54.349 16.2865 54.2969 16.4219C54.2448 16.5469 54.1823 16.6667 54.1094 16.7812C54.0365 16.8958 53.9479 16.9896 53.8438 17.0625C53.7396 17.1458 53.6094 17.1875 53.4531 17.1875C53.3698 17.1042 53.3229 17.0156 53.3125 16.9219C53.3021 16.8281 53.3125 16.7344 53.3438 16.6406C53.375 16.5365 53.4167 16.4375 53.4688 16.3438C53.5208 16.2396 53.5573 16.1406 53.5781 16.0469C53.6615 15.7448 53.8125 15.474 54.0312 15.2344C54.25 14.9844 54.4688 14.7396 54.6875 14.5C54.9062 14.25 55.0938 13.9896 55.25 13.7188C55.4062 13.4479 55.4688 13.1302 55.4375 12.7656C55.5729 12.7552 55.7083 12.7292 55.8438 12.6875C55.9896 12.6354 56.1198 12.5729 56.2344 12.5C56.3594 12.4167 56.4531 12.3177 56.5156 12.2031C56.5885 12.0781 56.6146 11.9323 56.5938 11.7656C56.5104 11.724 56.4635 11.6667 56.4531 11.5938C56.4427 11.5104 56.4427 11.4271 56.4531 11.3438C56.6823 11.2708 56.8646 11.1458 57 10.9688C57.1458 10.7812 57.276 10.5833 57.3906 10.375C57.5052 10.1667 57.6146 9.95833 57.7188 9.75C57.8333 9.53125 57.9792 9.34375 58.1562 9.1875C58.3021 9.27083 58.4479 9.34375 58.5938 9.40625C58.7396 9.45833 58.8802 9.53125 59.0156 9.625C58.9219 9.75 58.8646 9.86979 58.8438 9.98438C58.8229 10.099 58.8125 10.2188 58.8125 10.3438C58.8125 10.4583 58.8125 10.5729 58.8125 10.6875C58.8125 10.8021 58.7812 10.9219 58.7188 11.0469C58.8854 11.1927 59.026 11.3646 59.1406 11.5625C59.2552 11.7604 59.401 11.9271 59.5781 12.0625C59.7031 11.9688 59.8438 11.9219 60 11.9219C60.1562 11.9115 60.3125 11.9115 60.4688 11.9219C60.6354 11.9219 60.7917 11.9115 60.9375 11.8906C61.0833 11.8594 61.2031 11.7708 61.2969 11.625C61.3385 11.6667 61.401 11.6875 61.4844 11.6875C61.5677 11.6875 61.651 11.6875 61.7344 11.6875C61.8177 11.6875 61.8906 11.7031 61.9531 11.7344C62.0156 11.7552 62.0521 11.8021 62.0625 11.875C62.0729 11.9583 62.0677 12.0156 62.0469 12.0469C62.0365 12.0781 62.0208 12.1302 62 12.2031C61.9792 12.2865 61.974 12.3281 61.9844 12.3281C61.9948 12.3281 61.9844 12.3646 61.9531 12.4375C61.901 12.5729 61.8125 12.6875 61.6875 12.7812C61.5729 12.875 61.4531 12.9688 61.3281 13.0625C61.2135 13.1458 61.1042 13.2448 61 13.3594C60.9062 13.4635 60.8594 13.599 60.8594 13.7656C60.6302 13.849 60.4688 13.974 60.375 14.1406C60.2812 14.2969 60.2188 14.4792 60.1875 14.6875C60.1562 14.8854 60.1354 15.0938 60.125 15.3125C60.1146 15.5208 60.0781 15.7135 60.0156 15.8906L60.1562 16.0469L60.2812 15.8906C60.4271 16.099 60.599 16.2292 60.7969 16.2812C61.0052 16.3333 61.2188 16.349 61.4375 16.3281C61.5417 16.1719 61.6615 16.0469 61.7969 15.9531C61.9427 15.8594 62.0938 15.7812 62.25 15.7188C62.4167 15.6562 62.5833 15.599 62.75 15.5469C62.9271 15.4948 63.0938 15.4323 63.25 15.3594C63.375 15.2969 63.4792 15.2292 63.5625 15.1562C63.6562 15.0833 63.7552 15 63.8594 14.9062C64.1719 14.6146 64.4792 14.3281 64.7812 14.0469C65.0938 13.7656 65.4062 13.4792 65.7188 13.1875C65.7812 13.1875 65.8229 13.2188 65.8438 13.2812C65.8646 13.3438 65.875 13.4167 65.875 13.5C65.875 13.5729 65.8698 13.651 65.8594 13.7344C65.8594 13.8073 65.8594 13.8646 65.8594 13.9062Z" fill="#666666"/>
</svg>
