<svg width="56" height="56" viewBox="0 0 56 56" fill="none" xmlns="http://www.w3.org/2000/svg">
<path d="M14.336 0H33.0781L48.9443 16.5447V48.7186C48.9443 52.7363 45.6806 56 41.6521 56H14.3361C10.3184 56 7.05469 52.7363 7.05469 48.7186V7.28141C7.05462 3.26368 10.3183 0 14.336 0Z" fill="#0263D1"/>
<path opacity="0.302" fill-rule="evenodd" clip-rule="evenodd" d="M33.0586 0V16.4155H48.9463L33.0586 0Z" fill="white"/>
<path d="M35.3851 29.1365H20.6176C19.939 29.1365 19.3789 28.5871 19.3789 27.9086C19.3789 27.23 19.939 26.6807 20.6176 26.6807H35.3851C36.0637 26.6807 36.613 27.23 36.613 27.9086C36.613 28.5871 36.0637 29.1365 35.3851 29.1365ZM30.4626 43.9039H20.6176C19.939 43.9039 19.3789 43.3546 19.3789 42.676C19.3789 41.9975 19.939 41.4481 20.6176 41.4481H30.4626C31.1412 41.4481 31.6905 41.9975 31.6905 42.676C31.6905 43.3546 31.1412 43.9039 30.4626 43.9039ZM35.3851 38.9814H20.6176C19.939 38.9814 19.3789 38.4321 19.3789 37.7535C19.3789 37.075 19.939 36.5256 20.6176 36.5256H35.3851C36.0637 36.5256 36.613 37.075 36.613 37.7535C36.613 38.4321 36.0637 38.9814 35.3851 38.9814ZM35.3851 34.0589H20.6176C19.939 34.0589 19.3789 33.5096 19.3789 32.831C19.3789 32.1525 19.939 31.6031 20.6176 31.6031H35.3851C36.0637 31.6031 36.613 32.1525 36.613 32.831C36.613 33.5096 36.0637 34.0589 35.3851 34.0589Z" fill="white"/>
</svg>
