<?xml version="1.0" standalone="no"?>
<!DOCTYPE svg PUBLIC "-//W3C//DTD SVG 20010904//EN"
 "http://www.w3.org/TR/2001/REC-SVG-20010904/DTD/svg10.dtd">
<svg version="1.0" xmlns="http://www.w3.org/2000/svg"
 width="161.000000pt" height="168.000000pt" viewBox="0 0 161.000000 168.000000"
 preserveAspectRatio="xMidYMid meet">

<g transform="translate(0.000000,168.000000) scale(0.100000,-0.100000)"
fill="#000000" stroke="none">
<path d="M690 1554 c-14 -3 -42 -10 -62 -15 l-37 -10 65 -67 c64 -66 121 -143
145 -196 11 -22 17 -26 40 -21 40 9 145 -13 202 -42 67 -34 137 -106 173 -178
26 -55 29 -69 29 -165 0 -99 -2 -108 -32 -165 -33 -61 -51 -85 -92 -120 -21
-18 -20 -13 10 45 32 60 34 72 34 160 0 76 -4 104 -22 142 -44 96 -152 183
-251 203 -31 6 -33 5 -28 -12 18 -56 36 -184 36 -254 l0 -79 38 24 c20 14 55
33 77 42 l40 16 -48 -51 c-27 -28 -63 -82 -80 -119 -29 -61 -32 -76 -32 -162
0 -88 3 -101 33 -162 38 -77 110 -148 177 -174 51 -19 52 -19 162 68 179 141
292 417 262 638 -28 204 -117 370 -263 491 -70 58 -194 122 -281 145 -59 16
-247 27 -295 18z"/>
<path d="M471 1485 l-53 -25 36 -41 c49 -54 105 -142 132 -207 12 -29 23 -54
25 -54 2 -1 26 11 52 26 57 34 57 36 1 150 -41 83 -103 170 -124 173 -8 2 -39
-8 -69 -22z"/>
<path d="M273 1336 c-64 -67 -91 -103 -127 -177 -25 -52 -54 -123 -63 -159
-22 -88 -23 -264 0 -350 29 -109 98 -237 171 -315 l66 -70 25 30 c45 53 124
226 150 326 45 180 43 356 -6 539 -23 88 -104 260 -122 260 -6 0 -49 -38 -94
-84z"/>
<path d="M675 1116 c-46 -14 -45 -11 -25 -141 22 -142 -3 -327 -61 -460 -32
-73 -103 -180 -160 -240 -54 -57 -54 -57 11 -90 l34 -18 49 54 c132 145 208
314 237 528 19 138 -3 382 -33 380 -7 0 -30 -6 -52 -13z"/>
<path d="M756 380 c-29 -50 -122 -145 -181 -185 -30 -21 -55 -41 -55 -45 0 -9
95 -37 174 -51 77 -13 203 -7 280 14 l50 13 -55 31 c-71 40 -124 100 -163 184
l-32 69 -18 -30z"/>
</g>
</svg>
