<svg width="42" height="56" viewBox="0 0 42 56" fill="none" xmlns="http://www.w3.org/2000/svg">
<path fill-rule="evenodd" clip-rule="evenodd" d="M7.29302 0H26.0228L41.8875 16.5514V48.707C41.8875 52.7324 38.6198 56 34.5944 56H7.29302C3.26765 56 0 52.7324 0 48.707V7.29302C0 3.26765 3.26765 0 7.29302 0Z" fill="#0AC963"/>
<path opacity="0.302" fill-rule="evenodd" clip-rule="evenodd" d="M26 0V16.4093H41.8884L26 0Z" fill="white"/>
<path fill-rule="evenodd" clip-rule="evenodd" d="M28.0592 27.9883H13.8284C12.7629 27.9883 11.8867 28.8644 11.8867 29.93V38.9752C11.8867 40.0407 12.7628 40.9169 13.8284 40.9169H28.0592C29.1248 40.9169 29.9772 40.0408 29.9772 38.9752V29.9299C29.9772 28.8644 29.1248 27.9883 28.0592 27.9883ZM17.7117 30.4272C18.8719 30.4272 19.7954 31.3743 19.7954 32.5109C19.7954 33.6711 18.8719 34.6182 17.7117 34.6182C16.5514 34.6182 15.6043 33.6711 15.6043 32.5109C15.6043 31.3743 16.5514 30.4272 17.7117 30.4272ZM28.6986 38.9752C28.6986 39.3304 28.4144 39.6382 28.0592 39.6382H13.8284C13.4732 39.6382 13.1891 39.3304 13.1891 38.9752V38.5964L15.77 36.0154L17.9011 38.1465C18.1616 38.4069 18.5641 38.4069 18.8245 38.1465L24.176 32.7951L28.6986 37.3177V38.9752Z" fill="white"/>
</svg>
