<svg width="155" height="28" viewBox="0 0 155 28" fill="none" xmlns="http://www.w3.org/2000/svg">
<rect width="10.1555" height="19.9296" rx="5.07776" transform="matrix(0.870431 0.49229 -0.479339 0.87763 9.55304 5.23999)" fill="#111111"/>
<rect width="10.1555" height="25.6238" rx="5.07776" transform="matrix(0.870431 0.49229 -0.479339 0.87763 27.1746 0)" fill="#111111"/>
<rect opacity="0.5" width="10.1555" height="10.2495" rx="5.07776" transform="matrix(0.870431 0.49229 -0.479339 0.87763 36.0203 13.8197)" fill="#111111"/>
<path d="M58.94 21.4072H56.28V11.5672H58.94V21.4072ZM55.96 8.34719C55.96 7.89386 56.12 7.5072 56.44 7.1872C56.76 6.85386 57.1467 6.68719 57.6 6.68719C58.0533 6.68719 58.44 6.8472 58.76 7.1672C59.08 7.4872 59.24 7.88053 59.24 8.34719C59.24 8.7872 59.08 9.1672 58.76 9.4872C58.44 9.8072 58.0533 9.9672 57.6 9.9672C57.1467 9.9672 56.76 9.8072 56.44 9.4872C56.12 9.1672 55.96 8.7872 55.96 8.34719ZM60.4478 18.6672L62.7278 18.1672C62.7545 18.5939 62.9211 18.9539 63.2278 19.2472C63.5478 19.5272 63.9811 19.6672 64.5278 19.6672C64.9411 19.6672 65.2611 19.5739 65.4878 19.3872C65.7145 19.2005 65.8278 18.9672 65.8278 18.6872C65.8278 18.1939 65.4745 17.8739 64.7678 17.7272L63.4678 17.4272C62.5478 17.2272 61.8545 16.8672 61.3878 16.3472C60.9345 15.8272 60.7078 15.2072 60.7078 14.4872C60.7078 13.5939 61.0545 12.8339 61.7478 12.2072C62.4545 11.5805 63.3345 11.2672 64.3878 11.2672C65.0545 11.2672 65.6411 11.3672 66.1478 11.5672C66.6545 11.7539 67.0478 12.0005 67.3278 12.3072C67.6078 12.6005 67.8211 12.9005 67.9678 13.2072C68.1145 13.5139 68.2078 13.8139 68.2478 14.1072L66.0278 14.6072C65.9745 14.2605 65.8145 13.9539 65.5478 13.6872C65.2945 13.4205 64.9145 13.2872 64.4078 13.2872C64.0611 13.2872 63.7611 13.3805 63.5078 13.5672C63.2678 13.7539 63.1478 13.9872 63.1478 14.2672C63.1478 14.7472 63.4478 15.0405 64.0478 15.1472L65.4478 15.4472C66.3945 15.6472 67.1145 16.0139 67.6078 16.5472C68.1145 17.0805 68.3678 17.7205 68.3678 18.4672C68.3678 19.3472 68.0345 20.1072 67.3678 20.7472C66.7011 21.3872 65.7611 21.7072 64.5478 21.7072C63.8545 21.7072 63.2345 21.6072 62.6878 21.4072C62.1411 21.1939 61.7145 20.9272 61.4078 20.6072C61.1145 20.2739 60.8878 19.9472 60.7278 19.6272C60.5811 19.2939 60.4878 18.9739 60.4478 18.6672ZM72.6075 18.5472C73.1008 19.0405 73.6942 19.2872 74.3875 19.2872C75.0808 19.2872 75.6675 19.0405 76.1475 18.5472C76.6408 18.0539 76.8875 17.3672 76.8875 16.4872C76.8875 15.6072 76.6408 14.9205 76.1475 14.4272C75.6675 13.9339 75.0808 13.6872 74.3875 13.6872C73.6942 13.6872 73.1008 13.9339 72.6075 14.4272C72.1275 14.9205 71.8875 15.6072 71.8875 16.4872C71.8875 17.3672 72.1275 18.0539 72.6075 18.5472ZM70.6875 12.7472C71.6742 11.7605 72.9075 11.2672 74.3875 11.2672C75.8675 11.2672 77.0942 11.7605 78.0675 12.7472C79.0542 13.7339 79.5475 14.9805 79.5475 16.4872C79.5475 17.9939 79.0542 19.2405 78.0675 20.2272C77.0942 21.2139 75.8675 21.7072 74.3875 21.7072C72.9075 21.7072 71.6742 21.2139 70.6875 20.2272C69.7142 19.2405 69.2275 17.9939 69.2275 16.4872C69.2275 14.9805 69.7142 13.7339 70.6875 12.7472ZM83.8072 21.4072H81.1472V11.5672H83.6872V12.7672C83.9405 12.3139 84.3405 11.9539 84.8872 11.6872C85.4339 11.4205 85.9939 11.2872 86.5672 11.2872C87.9939 11.2872 88.9672 11.8339 89.4872 12.9272C90.1939 11.8339 91.2339 11.2872 92.6072 11.2872C93.6072 11.2872 94.4472 11.6005 95.1272 12.2272C95.8205 12.8539 96.1672 13.7872 96.1672 15.0272V21.4072H93.5872V15.5672C93.5872 15.0072 93.4405 14.5605 93.1472 14.2272C92.8672 13.8805 92.4339 13.7072 91.8472 13.7072C91.3005 13.7072 90.8605 13.8939 90.5272 14.2672C90.1939 14.6405 90.0272 15.1005 90.0272 15.6472V21.4072H87.3872V15.5672C87.3872 15.0072 87.2405 14.5605 86.9472 14.2272C86.6539 13.8805 86.2205 13.7072 85.6472 13.7072C85.0872 13.7072 84.6405 13.8939 84.3072 14.2672C83.9739 14.6272 83.8072 15.0872 83.8072 15.6472V21.4072ZM101.002 18.5472C101.495 19.0405 102.089 19.2872 102.782 19.2872C103.475 19.2872 104.062 19.0405 104.542 18.5472C105.035 18.0539 105.282 17.3672 105.282 16.4872C105.282 15.6072 105.035 14.9205 104.542 14.4272C104.062 13.9339 103.475 13.6872 102.782 13.6872C102.089 13.6872 101.495 13.9339 101.002 14.4272C100.522 14.9205 100.282 15.6072 100.282 16.4872C100.282 17.3672 100.522 18.0539 101.002 18.5472ZM99.082 12.7472C100.069 11.7605 101.302 11.2672 102.782 11.2672C104.262 11.2672 105.489 11.7605 106.462 12.7472C107.449 13.7339 107.942 14.9805 107.942 16.4872C107.942 17.9939 107.449 19.2405 106.462 20.2272C105.489 21.2139 104.262 21.7072 102.782 21.7072C101.302 21.7072 100.069 21.2139 99.082 20.2272C98.1087 19.2405 97.622 17.9939 97.622 16.4872C97.622 14.9805 98.1087 13.7339 99.082 12.7472ZM115.542 11.5272V14.2072C115.275 14.1539 115.008 14.1272 114.742 14.1272C113.982 14.1272 113.368 14.3472 112.902 14.7872C112.435 15.2139 112.202 15.9205 112.202 16.9072V21.4072H109.542V11.5672H112.122V13.0272C112.602 12.0005 113.535 11.4872 114.922 11.4872C115.068 11.4872 115.275 11.5005 115.542 11.5272ZM119.573 25.2072H116.913V11.5672H119.493V12.7672C119.733 12.3672 120.119 12.0339 120.653 11.7672C121.186 11.4872 121.806 11.3472 122.513 11.3472C123.913 11.3472 125.019 11.8272 125.833 12.7872C126.646 13.7339 127.053 14.9605 127.053 16.4672C127.053 17.9739 126.619 19.2139 125.753 20.1872C124.899 21.1605 123.786 21.6472 122.413 21.6472C121.106 21.6472 120.159 21.2472 119.573 20.4472V25.2072ZM123.733 18.5272C124.199 18.0205 124.433 17.3405 124.433 16.4872C124.433 15.6339 124.199 14.9605 123.733 14.4672C123.279 13.9739 122.699 13.7272 121.993 13.7272C121.286 13.7272 120.699 13.9805 120.233 14.4872C119.766 14.9805 119.533 15.6472 119.533 16.4872C119.533 17.3272 119.766 18.0005 120.233 18.5072C120.699 19.0139 121.286 19.2672 121.993 19.2672C122.699 19.2672 123.279 19.0205 123.733 18.5272ZM131.319 15.6272V21.4072H128.659V6.9272H131.319V12.3872C131.919 11.6672 132.806 11.3072 133.979 11.3072C135.179 11.3072 136.086 11.6739 136.699 12.4072C137.326 13.1272 137.639 14.0605 137.639 15.2072V21.4072H134.979V15.6672C134.979 15.0805 134.826 14.6072 134.519 14.2472C134.226 13.8872 133.772 13.7072 133.159 13.7072C132.612 13.7072 132.172 13.8872 131.839 14.2472C131.519 14.6072 131.346 15.0672 131.319 15.6272ZM142.499 21.4072H139.839V11.5672H142.499V21.4072ZM139.519 8.34719C139.519 7.89386 139.679 7.5072 139.999 7.1872C140.319 6.85386 140.705 6.68719 141.159 6.68719C141.612 6.68719 141.999 6.8472 142.319 7.1672C142.639 7.4872 142.799 7.88053 142.799 8.34719C142.799 8.7872 142.639 9.1672 142.319 9.4872C141.999 9.8072 141.612 9.9672 141.159 9.9672C140.705 9.9672 140.319 9.8072 139.999 9.4872C139.679 9.1672 139.519 8.7872 139.519 8.34719ZM149.266 13.7272C148.56 13.7272 147.966 13.9739 147.486 14.4672C147.006 14.9605 146.766 15.6339 146.766 16.4872C146.766 17.3405 147.006 18.0205 147.486 18.5272C147.98 19.0205 148.58 19.2672 149.286 19.2672C149.913 19.2672 150.413 19.1072 150.786 18.7872C151.16 18.4539 151.413 18.0605 151.546 17.6072L153.886 18.3872C153.646 19.2939 153.126 20.0739 152.326 20.7272C151.526 21.3805 150.513 21.7072 149.286 21.7072C147.82 21.7072 146.586 21.2139 145.586 20.2272C144.6 19.2272 144.106 17.9805 144.106 16.4872C144.106 14.9805 144.593 13.7339 145.566 12.7472C146.553 11.7605 147.766 11.2672 149.206 11.2672C150.46 11.2672 151.486 11.5939 152.286 12.2472C153.086 12.8872 153.6 13.6672 153.826 14.5872L151.446 15.3872C151.126 14.2805 150.4 13.7272 149.266 13.7272Z" fill="#111111"/>
</svg>
