<svg width="99" height="19" viewBox="0 0 99 19" fill="none" xmlns="http://www.w3.org/2000/svg">
<path d="M3.94084 15.127H1.28084V5.28695H3.94084V15.127ZM0.96084 2.06695C0.96084 1.61362 1.12084 1.22695 1.44084 0.906953C1.76084 0.573619 2.14751 0.406952 2.60084 0.406952C3.05417 0.406952 3.44084 0.566952 3.76084 0.886953C4.08084 1.20695 4.24084 1.60029 4.24084 2.06695C4.24084 2.50695 4.08084 2.88695 3.76084 3.20695C3.44084 3.52695 3.05417 3.68695 2.60084 3.68695C2.14751 3.68695 1.76084 3.52695 1.44084 3.20695C1.12084 2.88695 0.96084 2.50695 0.96084 2.06695ZM5.44865 12.387L7.72865 11.887C7.75532 12.3136 7.92199 12.6736 8.22865 12.967C8.54865 13.247 8.98199 13.387 9.52865 13.387C9.94199 13.387 10.262 13.2936 10.4887 13.107C10.7153 12.9203 10.8287 12.687 10.8287 12.407C10.8287 11.9136 10.4753 11.5936 9.76865 11.447L8.46865 11.147C7.54865 10.947 6.85532 10.587 6.38865 10.067C5.93532 9.54695 5.70865 8.92695 5.70865 8.20695C5.70865 7.31362 6.05532 6.55362 6.74865 5.92695C7.45532 5.30029 8.33532 4.98695 9.38865 4.98695C10.0553 4.98695 10.642 5.08695 11.1487 5.28695C11.6553 5.47362 12.0487 5.72029 12.3287 6.02695C12.6087 6.32029 12.822 6.62029 12.9687 6.92695C13.1153 7.23362 13.2087 7.53362 13.2487 7.82695L11.0287 8.32695C10.9753 7.98029 10.8153 7.67362 10.5487 7.40695C10.2953 7.14029 9.91532 7.00695 9.40865 7.00695C9.06199 7.00695 8.76199 7.10029 8.50865 7.28695C8.26865 7.47362 8.14865 7.70695 8.14865 7.98695C8.14865 8.46695 8.44865 8.76029 9.04865 8.86695L10.4487 9.16695C11.3953 9.36695 12.1153 9.73362 12.6087 10.267C13.1153 10.8003 13.3687 11.4403 13.3687 12.187C13.3687 13.067 13.0353 13.827 12.3687 14.467C11.702 15.107 10.762 15.427 9.54865 15.427C8.85532 15.427 8.23532 15.327 7.68865 15.127C7.14199 14.9136 6.71532 14.647 6.40865 14.327C6.11532 13.9936 5.88865 13.667 5.72865 13.347C5.58199 13.0136 5.48865 12.6936 5.44865 12.387ZM17.6083 12.267C18.1017 12.7603 18.695 13.007 19.3883 13.007C20.0817 13.007 20.6683 12.7603 21.1483 12.267C21.6417 11.7736 21.8883 11.087 21.8883 10.207C21.8883 9.32695 21.6417 8.64029 21.1483 8.14695C20.6683 7.65362 20.0817 7.40695 19.3883 7.40695C18.695 7.40695 18.1017 7.65362 17.6083 8.14695C17.1283 8.64029 16.8883 9.32695 16.8883 10.207C16.8883 11.087 17.1283 11.7736 17.6083 12.267ZM15.6883 6.46695C16.675 5.48029 17.9083 4.98695 19.3883 4.98695C20.8683 4.98695 22.095 5.48029 23.0683 6.46695C24.055 7.45362 24.5483 8.70029 24.5483 10.207C24.5483 11.7136 24.055 12.9603 23.0683 13.947C22.095 14.9336 20.8683 15.427 19.3883 15.427C17.9083 15.427 16.675 14.9336 15.6883 13.947C14.715 12.9603 14.2283 11.7136 14.2283 10.207C14.2283 8.70029 14.715 7.45362 15.6883 6.46695ZM28.808 15.127H26.148V5.28695H28.688V6.48695C28.9414 6.03362 29.3414 5.67362 29.888 5.40695C30.4347 5.14029 30.9947 5.00695 31.568 5.00695C32.9947 5.00695 33.968 5.55362 34.488 6.64695C35.1947 5.55362 36.2347 5.00695 37.608 5.00695C38.608 5.00695 39.448 5.32029 40.128 5.94695C40.8214 6.57362 41.168 7.50695 41.168 8.74695V15.127H38.588V9.28695C38.588 8.72695 38.4414 8.28029 38.148 7.94695C37.868 7.60029 37.4347 7.42695 36.848 7.42695C36.3014 7.42695 35.8614 7.61362 35.528 7.98695C35.1947 8.36029 35.028 8.82029 35.028 9.36695V15.127H32.388V9.28695C32.388 8.72695 32.2414 8.28029 31.948 7.94695C31.6547 7.60029 31.2214 7.42695 30.648 7.42695C30.088 7.42695 29.6414 7.61362 29.308 7.98695C28.9747 8.34695 28.808 8.80695 28.808 9.36695V15.127ZM46.0029 12.267C46.4962 12.7603 47.0895 13.007 47.7829 13.007C48.4762 13.007 49.0629 12.7603 49.5429 12.267C50.0362 11.7736 50.2829 11.087 50.2829 10.207C50.2829 9.32695 50.0362 8.64029 49.5429 8.14695C49.0629 7.65362 48.4762 7.40695 47.7829 7.40695C47.0895 7.40695 46.4962 7.65362 46.0029 8.14695C45.5229 8.64029 45.2829 9.32695 45.2829 10.207C45.2829 11.087 45.5229 11.7736 46.0029 12.267ZM44.0829 6.46695C45.0695 5.48029 46.3029 4.98695 47.7829 4.98695C49.2629 4.98695 50.4895 5.48029 51.4629 6.46695C52.4495 7.45362 52.9429 8.70029 52.9429 10.207C52.9429 11.7136 52.4495 12.9603 51.4629 13.947C50.4895 14.9336 49.2629 15.427 47.7829 15.427C46.3029 15.427 45.0695 14.9336 44.0829 13.947C43.1095 12.9603 42.6229 11.7136 42.6229 10.207C42.6229 8.70029 43.1095 7.45362 44.0829 6.46695ZM60.5426 5.24695V7.92695C60.2759 7.87362 60.0092 7.84695 59.7426 7.84695C58.9826 7.84695 58.3692 8.06695 57.9026 8.50695C57.4359 8.93362 57.2026 9.64029 57.2026 10.627V15.127H54.5426V5.28695H57.1226V6.74695C57.6026 5.72029 58.5359 5.20695 59.9226 5.20695C60.0692 5.20695 60.2759 5.22029 60.5426 5.24695ZM64.5737 18.927H61.9137V5.28695H64.4937V6.48695C64.7337 6.08695 65.1203 5.75362 65.6537 5.48695C66.187 5.20695 66.807 5.06695 67.5137 5.06695C68.9137 5.06695 70.0203 5.54695 70.8337 6.50695C71.647 7.45362 72.0537 8.68029 72.0537 10.187C72.0537 11.6936 71.6203 12.9336 70.7537 13.907C69.9003 14.8803 68.787 15.367 67.4137 15.367C66.107 15.367 65.1603 14.967 64.5737 14.167V18.927ZM68.7337 12.247C69.2003 11.7403 69.4337 11.0603 69.4337 10.207C69.4337 9.35362 69.2003 8.68029 68.7337 8.18695C68.2803 7.69362 67.7003 7.44695 66.9937 7.44695C66.287 7.44695 65.7003 7.70029 65.2337 8.20695C64.767 8.70029 64.5337 9.36695 64.5337 10.207C64.5337 11.047 64.767 11.7203 65.2337 12.227C65.7003 12.7336 66.287 12.987 66.9937 12.987C67.7003 12.987 68.2803 12.7403 68.7337 12.247ZM76.3197 9.34695V15.127H73.6597V0.646952H76.3197V6.10695C76.9197 5.38695 77.8064 5.02695 78.9797 5.02695C80.1797 5.02695 81.0864 5.39362 81.6997 6.12695C82.3264 6.84695 82.6397 7.78029 82.6397 8.92695V15.127H79.9797V9.38695C79.9797 8.80029 79.8264 8.32695 79.5197 7.96695C79.2264 7.60695 78.7731 7.42695 78.1597 7.42695C77.6131 7.42695 77.1731 7.60695 76.8397 7.96695C76.5197 8.32695 76.3464 8.78695 76.3197 9.34695ZM87.4994 15.127H84.8394V5.28695H87.4994V15.127ZM84.5194 2.06695C84.5194 1.61362 84.6794 1.22695 84.9994 0.906953C85.3194 0.573619 85.7061 0.406952 86.1594 0.406952C86.6128 0.406952 86.9994 0.566952 87.3194 0.886953C87.6394 1.20695 87.7994 1.60029 87.7994 2.06695C87.7994 2.50695 87.6394 2.88695 87.3194 3.20695C86.9994 3.52695 86.6128 3.68695 86.1594 3.68695C85.7061 3.68695 85.3194 3.52695 84.9994 3.20695C84.6794 2.88695 84.5194 2.50695 84.5194 2.06695ZM94.2672 7.44695C93.5606 7.44695 92.9672 7.69362 92.4872 8.18695C92.0072 8.68029 91.7672 9.35362 91.7672 10.207C91.7672 11.0603 92.0072 11.7403 92.4872 12.247C92.9806 12.7403 93.5806 12.987 94.2872 12.987C94.9139 12.987 95.4139 12.827 95.7872 12.507C96.1606 12.1736 96.4139 11.7803 96.5472 11.327L98.8872 12.107C98.6472 13.0136 98.1272 13.7936 97.3272 14.447C96.5272 15.1003 95.5139 15.427 94.2872 15.427C92.8206 15.427 91.5872 14.9336 90.5872 13.947C89.6006 12.947 89.1072 11.7003 89.1072 10.207C89.1072 8.70029 89.5939 7.45362 90.5672 6.46695C91.5539 5.48029 92.7672 4.98695 94.2072 4.98695C95.4606 4.98695 96.4872 5.31362 97.2872 5.96695C98.0872 6.60695 98.6006 7.38695 98.8272 8.30695L96.4472 9.10695C96.1272 8.00029 95.4006 7.44695 94.2672 7.44695Z" fill="#333333"/>
</svg>
