<svg width="140" height="140" viewBox="0 0 140 140" fill="none" xmlns="http://www.w3.org/2000/svg">
<g clip-path="url(#clip0_3298_23057)">
<rect opacity="0.1" width="140" height="140" rx="39.2683" fill="#608EFB"/>
<g filter="url(#filter0_d_3298_23057)">
<path d="M47.1598 31.7767C51.9127 31.7806 56.5391 30.2453 60.3465 27.4003L66.841 22.5476C69.2666 20.8487 72.4962 20.8487 74.9218 22.5476L81.8347 27.5609C85.567 30.2675 90.0552 31.7333 94.6655 31.751L100.161 31.7723C105.606 31.7723 110.021 36.1864 110.021 41.6315V41.6315C110.021 46.5985 112.219 51.3108 116.024 54.5029L116.26 54.7009C116.739 55.1024 117.015 55.695 117.015 56.3196V112.1C117.015 115.989 113.862 119.142 109.973 119.142H32.0267C28.1376 119.142 24.9844 115.989 24.9844 112.1L24.9878 56.3194C24.9878 55.6949 25.2643 55.1024 25.7423 54.701L25.9738 54.5068C29.7802 51.3136 31.9786 46.5999 31.9786 41.6315V41.6315C31.9786 36.1864 36.3924 31.7723 41.8379 31.7723L47.1598 31.7767Z" fill="white" fill-opacity="0.01"/>
</g>
<mask id="mask0_3298_23057" style="mask-type:alpha" maskUnits="userSpaceOnUse" x="24" y="18" width="94" height="102">
<path d="M53.0746 31.7733L66.9592 20.1257C69.3848 18.4268 72.6144 18.4268 75.04 20.1257L88.9256 31.7733H100.161C105.606 31.7733 110.021 36.1874 110.021 41.6326V49.4682L116.26 54.702C116.739 55.1034 117.015 55.696 117.015 56.3206V112.101C117.015 115.99 113.862 119.143 109.973 119.143H32.0267C28.1376 119.143 24.9844 115.99 24.9844 112.101L24.9878 56.3205C24.9878 55.6959 25.2643 55.1034 25.7423 54.702L31.9786 49.4705V41.6326C31.9786 36.1874 36.3924 31.7733 41.8379 31.7733H53.0746Z" fill="#EBE9FF"/>
</mask>
<g mask="url(#mask0_3298_23057)">
<path d="M64.7103 23.0865L28.1119 52.8006C26.1355 54.4052 24.9878 56.8151 24.9877 59.3608L24.9846 112.102C24.9846 115.992 28.1376 119.145 32.027 119.145H109.973C113.862 119.145 117.015 115.992 117.015 112.102V59.3709C117.015 56.8195 115.863 54.4046 113.879 52.8001L77.1246 23.0748C73.5032 20.1459 68.3262 20.1508 64.7103 23.0865Z" fill="#3872FA"/>
<path d="M100.162 31.7734C105.607 31.7734 110.021 36.1876 110.021 41.6327L110.021 117.735C110.021 118.513 109.39 119.143 108.613 119.143L33.3873 119.143C32.6095 119.143 31.9789 118.513 31.9789 117.735L31.9789 41.6327C31.9789 36.1876 36.393 31.7734 41.8382 31.7734L100.162 31.7734Z" fill="white"/>
<rect x="42.6084" y="65.6836" width="44.4953" height="6.42546" rx="3.21273" fill="#608EFB"/>
<rect x="42.6082" y="43.8281" width="44.0601" height="6.42546" rx="3.21273" fill="#608EFB"/>
<rect x="42.6084" y="54.7578" width="33.4123" height="6.42546" rx="3.21273" fill="#608EFB"/>
<path d="M60.4275 87.0323L24.5635 58.0898L24.8124 116.258L60.4275 87.0323Z" fill="#608EFB"/>
<path d="M81.7561 87.5419L118.087 58.5078L117.583 113.832L81.7561 87.5419Z" fill="#608EFB"/>
<path d="M9.76746 117.383L63.0569 80.0581C67.9079 76.6603 74.3664 76.6603 79.2175 80.0581L143.481 125.07C144.608 125.859 144.05 127.632 142.673 127.632L12.9996 127.632C7.4921 127.632 5.25645 120.543 9.76746 117.383Z" fill="#3872FA"/>
</g>
</g>
<defs>
<filter id="filter0_d_3298_23057" x="-4.09433" y="4.16831" width="150.188" height="156.026" filterUnits="userSpaceOnUse" color-interpolation-filters="sRGB">
<feFlood flood-opacity="0" result="BackgroundImageFix"/>
<feColorMatrix in="SourceAlpha" type="matrix" values="0 0 0 0 0 0 0 0 0 0 0 0 0 0 0 0 0 0 127 0" result="hardAlpha"/>
<feOffset dy="11.9736"/>
<feGaussianBlur stdDeviation="14.5394"/>
<feColorMatrix type="matrix" values="0 0 0 0 0.290196 0 0 0 0 0.227451 0 0 0 0 1 0 0 0 0.15 0"/>
<feBlend mode="normal" in2="BackgroundImageFix" result="effect1_dropShadow_3298_23057"/>
<feBlend mode="normal" in="SourceGraphic" in2="effect1_dropShadow_3298_23057" result="shape"/>
</filter>
<clipPath id="clip0_3298_23057">
<rect width="140" height="140" fill="white"/>
</clipPath>
</defs>
</svg>
