<svg width="120" height="120" viewBox="0 0 120 120" fill="none" xmlns="http://www.w3.org/2000/svg">
<g clip-path="url(#clip0_3301_23042)">
<path d="M117.627 35.9957C112.387 22.6625 96.2455 14.6668 82.5744 19.9581C66.9692 25.9979 72.1433 50.8189 57.969 55.8381C50.3122 58.5493 38.9935 48.4215 31.2575 46.8683C17.0026 44.0066 4.09791 54.0648 0.92025 67.9935C-2.32163 82.2036 2.87798 101.183 18.4906 105.04C37.0883 109.634 46.7757 92.9162 62.3771 88.1157C78.3873 83.1894 96.1888 94.824 109.443 80.6682C119.235 70.2104 122.815 49.1985 117.627 35.9957Z" fill="url(#paint0_linear_3301_23042)"/>
<path opacity="0.1" d="M111.761 41.8575C111.761 32.6004 104.257 25.0957 94.9993 25.0957C87.8275 25.0957 81.7105 29.6016 79.3173 35.9355H18.7061C16.1171 35.9355 14.0186 38.0341 14.0186 40.623V92.516C14.0186 95.1049 16.1171 97.2035 18.7061 97.2035H101.294C103.883 97.2035 105.981 95.1049 105.981 92.516V54.5145C109.52 51.4411 111.761 46.9125 111.761 41.8575Z" fill="#17316C"/>
<path d="M101.294 91.3441H18.7061C16.1171 91.3441 14.0186 89.2455 14.0186 86.6566V34.7637C14.0186 32.1748 16.1171 30.0762 18.7061 30.0762H101.294C103.883 30.0762 105.981 32.1748 105.981 34.7637V86.6566C105.981 89.2455 103.883 91.3441 101.294 91.3441Z" fill="white"/>
<path d="M61.4279 52.4324L105.982 86.657C105.982 89.2459 103.883 91.3445 101.294 91.3445H18.7061C16.1171 91.3445 14.0186 89.2459 14.0186 86.657L58.5723 52.4324C59.4144 51.7855 60.5858 51.7855 61.4279 52.4324Z" fill="white"/>
<path d="M58.5723 68.9885L14.0186 34.7637C14.0186 32.1748 16.1171 30.0762 18.7061 30.0762H101.294C103.883 30.0762 105.981 32.1748 105.981 34.7637L61.4279 68.9885C60.5858 69.6352 59.4144 69.6352 58.5723 68.9885Z" fill="white"/>
<path d="M86.9408 85.1074H79.4094C78.7621 85.1074 78.2375 84.5828 78.2375 83.9355V78.7432C78.2375 78.0961 78.7621 77.5713 79.4094 77.5713H86.9408C87.5882 77.5713 88.1127 78.0961 88.1127 78.7432V83.9355C88.1127 84.5828 87.5882 85.1074 86.9408 85.1074Z" fill="#3872FA"/>
<path d="M73.0949 80.3301H66.5715C65.9242 80.3301 65.3997 79.8053 65.3997 79.1582C65.3997 78.5111 65.9242 77.9863 66.5715 77.9863H73.0949C73.7422 77.9863 74.2668 78.5111 74.2668 79.1582C74.2668 79.8053 73.7422 80.3301 73.0949 80.3301Z" fill="#17316C"/>
<path d="M73.0949 85.1074H50.1653C49.5179 85.1074 48.9934 84.5827 48.9934 83.9355C48.9934 83.2884 49.5179 82.7637 50.1653 82.7637H73.0949C73.7422 82.7637 74.2668 83.2884 74.2668 83.9355C74.2668 84.5829 73.7422 85.1074 73.0949 85.1074Z" fill="#17316C"/>
<path d="M111.523 38.6822C113.004 29.5452 106.798 20.9376 97.6606 19.4564C88.5237 17.9752 79.916 24.1815 78.4348 33.3184C76.9537 42.4554 83.1599 51.063 92.2968 52.5442C101.434 54.0254 110.041 47.8191 111.523 38.6822Z" fill="#3872FA"/>
<path d="M94.9993 53.9318C104.888 53.9318 112.933 45.8869 112.933 35.9981C112.933 26.1094 104.888 18.0645 94.9993 18.0645C85.1106 18.0645 77.0657 26.1094 77.0657 35.9981C77.0657 41.7506 79.7912 46.8755 84.0156 50.1593L60.714 68.059C60.2943 68.3819 59.7069 68.3822 59.2862 68.059L15.2326 34.2185C15.4954 32.538 16.9532 31.248 18.7061 31.248H72.4637C73.1111 31.248 73.6356 30.7233 73.6356 30.0762C73.6356 29.4291 73.1111 28.9043 72.4637 28.9043H18.7061C15.4752 28.9043 12.8467 31.5328 12.8467 34.7637V86.6566C12.8467 89.8875 15.4752 92.516 18.7061 92.516H101.294C104.525 92.516 107.153 89.8875 107.153 86.6566V55.6863C107.153 55.0392 106.629 54.5144 105.981 54.5144C105.334 54.5144 104.81 55.0392 104.81 55.6863V84.2787L74.1282 60.7102L86.0673 51.5391C88.6993 53.0578 91.7483 53.9318 94.9993 53.9318ZM45.872 60.7102L15.1904 84.2787V37.1416L45.872 60.7102ZM104.763 87.1988C104.501 88.8802 103.048 90.1723 101.294 90.1723H18.7061C16.9522 90.1723 15.4986 88.8802 15.2366 87.1988L47.7957 62.1879L57.8584 69.9176C58.4889 70.4018 59.2445 70.6441 60.0001 70.6441C60.7557 70.6441 61.5111 70.402 62.1418 69.9176L72.2045 62.1877L104.763 87.1988ZM79.4094 35.9981C79.4094 27.402 86.4029 20.4082 94.9993 20.4082C103.596 20.4082 110.589 27.4017 110.589 35.9981C110.589 44.5943 103.596 51.588 94.9993 51.588C86.4029 51.588 79.4094 44.5943 79.4094 35.9981Z" fill="#17316C"/>
<path d="M87.6831 30.282L90.0751 35.9982L87.6831 41.7143C87.2769 42.6851 88.2569 43.6578 89.2246 43.2443L103.667 37.0758C104.615 36.6706 104.615 35.3257 103.667 34.9205L89.2246 28.752C88.2569 28.3386 87.2769 29.3112 87.6831 30.282Z" fill="white"/>
<path d="M77.5378 19.1412C76.6673 19.1412 75.7971 18.81 75.1347 18.1474C73.8096 16.8223 73.8096 14.6663 75.1347 13.3413C76.4592 12.0167 78.6157 12.0162 79.9406 13.3413C81.2657 14.6665 81.2657 16.8225 79.9406 18.1474C79.2782 18.81 78.408 19.1412 77.5378 19.1412ZM77.5378 14.6902C77.2678 14.6902 76.9975 14.7928 76.7918 14.9986C76.3807 15.4097 76.3807 16.0788 76.7918 16.4902C77.2033 16.9013 77.8718 16.9015 78.2833 16.4902C78.6944 16.0791 78.6944 15.4099 78.2833 14.9986C78.0778 14.7931 77.8075 14.6902 77.5378 14.6902Z" fill="#3872FA"/>
<path d="M51.2199 107.652C50.3497 107.652 49.4792 107.321 48.8169 106.658C47.4917 105.333 47.4917 103.177 48.8169 101.852C50.1416 100.527 52.2983 100.527 53.623 101.852C54.9481 103.177 54.9481 105.333 53.623 106.658C52.9606 107.321 52.0901 107.652 51.2199 107.652ZM51.2199 103.201C50.9499 103.201 50.6797 103.304 50.4739 103.509C50.0628 103.92 50.0628 104.59 50.4739 105.001C50.8855 105.412 51.5541 105.412 51.9657 105.001C52.3768 104.59 52.3768 103.921 51.9657 103.509C51.7601 103.304 51.4899 103.201 51.2199 103.201Z" fill="#3872FA"/>
<path d="M69.0891 22.1589C68.7893 22.1589 68.4891 22.0446 68.2605 21.8158L66.8625 20.418L65.4644 21.8158C65.0072 22.2733 64.2647 22.2733 63.8074 21.8158C63.3497 21.3581 63.3497 20.6161 63.8074 20.1586L66.034 17.932C66.4912 17.4745 67.2337 17.4745 67.691 17.932L69.9176 20.1586C70.3753 20.6163 70.3753 21.3583 69.9176 21.8158C69.6891 22.0443 69.3891 22.1589 69.0891 22.1589Z" fill="#3872FA"/>
<path d="M103.066 103.2C102.766 103.2 102.466 103.086 102.237 102.857L100.839 101.459L99.441 102.857C98.9837 103.314 98.2412 103.314 97.784 102.857C97.3262 102.399 97.3262 101.657 97.784 101.2L100.011 98.973C100.468 98.5155 101.21 98.5155 101.668 98.973L103.894 101.2C104.352 101.657 104.352 102.399 103.894 102.857C103.666 103.085 103.365 103.2 103.066 103.2Z" fill="#3872FA"/>
<path d="M41.926 104.313C41.6262 104.313 41.326 104.199 41.0975 103.97L39.6994 102.572L38.3014 103.97C37.8441 104.428 37.1016 104.428 36.6443 103.97C36.1866 103.512 36.1866 102.77 36.6443 102.313L38.8709 100.086C39.3282 99.6288 40.0707 99.6288 40.5279 100.086L42.7545 102.313C43.2122 102.771 43.2122 103.513 42.7545 103.97C42.5257 104.199 42.2257 104.313 41.926 104.313Z" fill="#3872FA"/>
</g>
<defs>
<linearGradient id="paint0_linear_3301_23042" x1="101.328" y1="117.807" x2="46.4846" y2="45.151" gradientUnits="userSpaceOnUse">
<stop stop-color="#D2DEFF" stop-opacity="0"/>
<stop offset="1" stop-color="#B7C5FF"/>
</linearGradient>
<clipPath id="clip0_3301_23042">
<rect width="120" height="120" fill="white"/>
</clipPath>
</defs>
</svg>
