<svg width="56" height="56" viewBox="0 0 56 56" fill="none" xmlns="http://www.w3.org/2000/svg">
<path d="M14.336 0H33.0781L48.9443 16.5447V48.7186C48.9443 52.7363 45.6806 56 41.6521 56H14.3361C10.3184 56 7.05469 52.7363 7.05469 48.7186V7.28141C7.05462 3.26368 10.3183 0 14.336 0Z" fill="#DC0A20"/>
<path opacity="0.302" fill-rule="evenodd" clip-rule="evenodd" d="M33.0547 0V16.4155H48.9423L33.0547 0Z" fill="white"/>
<path d="M27.5282 25C26.817 25.0102 26.3222 25.4625 26.0821 25.7326C25.5252 26.3589 25.4998 27.2175 25.686 28.0497C25.8722 28.8819 26.2709 29.7677 26.7574 30.665C26.812 30.7657 26.8725 30.8338 26.9292 30.9347C25.951 32.715 24.6053 34.6531 23.4309 36.1988C21.9062 36.5613 20.4468 36.7391 19.5699 37.726C18.8358 38.5534 18.7847 39.8105 19.5699 40.5418C19.9115 40.8417 20.3894 40.9936 20.806 41C21.1973 40.9955 21.5313 40.8841 21.7987 40.7208C22.8238 40.095 23.4914 38.766 24.2304 37.2297L30.2223 35.8337C31.1212 36.9481 32.0567 38.0403 33.1717 38.3846C33.6887 38.5443 34.2346 38.5254 34.7228 38.3489C35.211 38.1723 35.6674 37.823 35.8754 37.2846C36.2385 36.3063 35.8381 35.2226 34.9018 34.7334C34.1749 34.3412 33.269 34.2744 32.2602 34.3182C31.7446 34.3405 31.2 34.3957 30.647 34.4757C29.9935 33.4798 29.1139 32.1636 28.3467 30.8819C28.7967 29.9887 29.1876 29.1094 29.3561 28.3024C29.5441 27.4013 29.5065 26.5139 28.9957 25.8302C28.6293 25.2511 28.0702 25.0038 27.5282 25ZM28.0197 26.5439C28.242 26.8307 28.3175 27.3204 28.1653 28.0497C28.0807 28.4549 27.7943 28.9989 27.5878 29.4934C27.2915 28.8829 26.9811 28.2572 26.8743 27.78C26.7311 27.1396 26.8295 26.7846 26.9937 26.5439C27.109 26.3556 27.2653 26.2401 27.4894 26.2272C27.7255 26.214 27.8821 26.3663 28.0197 26.5439ZM27.6498 32.0634C28.2241 32.9783 28.8353 33.93 29.3346 34.7026L25.3256 35.6762C26.1343 34.4495 26.9827 33.1979 27.6498 32.0634ZM34.3171 35.8051C34.7579 36.0429 34.8904 36.4197 34.73 36.8431C34.579 37.2333 33.8524 37.3382 33.532 37.2225C33.097 37.0881 32.3957 36.2817 31.7543 35.6165C31.9317 35.5726 32.1474 35.5427 32.315 35.5354C32.9601 35.507 33.7153 35.5222 34.3171 35.8051ZM22.338 37.8883C21.9138 38.578 21.436 39.5147 21.1568 39.6851C20.8808 39.875 20.5622 39.8042 20.4004 39.6398C20.1767 39.4242 20.1382 38.9374 20.491 38.5397C20.8506 38.1938 21.3644 38.0491 22.338 37.8883Z" fill="white"/>
</svg>
