<svg width="56" height="56" viewBox="0 0 56 56" fill="none" xmlns="http://www.w3.org/2000/svg">
<path fill-rule="evenodd" clip-rule="evenodd" d="M14.3477 0H33.0775L48.9421 16.5513V48.707C48.9421 52.7324 45.6745 56 41.6491 56H14.3477C10.3223 56 7.05469 52.7324 7.05469 48.707V7.29302C7.05469 3.26765 10.3223 0 14.3477 0Z" fill="#00733B"/>
<path opacity="0.302" fill-rule="evenodd" clip-rule="evenodd" d="M33.0547 0V16.4093H48.9431L33.0547 0Z" fill="white"/>
<path fill-rule="evenodd" clip-rule="evenodd" d="M19.3906 41.0827H26.8257V43.9004H19.3906V41.0827ZM29.1462 26.686H36.605V29.4801H29.1462V26.686ZM19.3906 26.686H26.8257V29.4801H19.3906V26.686ZM29.1462 31.4217H36.605V34.2395H29.1462V31.4217ZM19.3906 31.4217H26.8257V34.2395H19.3906V31.4217ZM29.1462 36.3469H36.605V39.1647H29.1462V36.3469ZM19.3906 36.3469H26.8257V39.1647H19.3906V36.3469ZM29.1462 41.0827H36.605V43.9004H29.1462V41.0827Z" fill="white"/>
</svg>
